<svg id="Layer_2" data-name="Layer 2" xmlns="http://www.w3.org/2000/svg" viewBox="0 0 289.3 118.69"><defs><style>.cls-1{fill:#df897c;}.cls-1,.cls-10,.cls-11,.cls-12,.cls-2,.cls-5,.cls-7,.cls-8,.cls-9{opacity:0.7;}.cls-3,.cls-4{fill:#744d40;}.cls-3{opacity:0.9;}.cls-5{fill:#8e6b62;}.cls-6{fill:none;}.cls-7{fill:#fff;stroke:#6d5555;}.cls-7,.cls-8,.cls-9{stroke-miterlimit:10;}.cls-8{fill:#26859e;stroke:#1b698c;}.cls-8,.cls-9{stroke-width:1.4px;}.cls-9{fill:#55bdce;stroke:#36abc6;}.cls-10{fill:#9ed7dd;}.cls-11{fill:#474646;}.cls-12{fill:#e6a79d;}</style></defs><title>eyez</title><path class="cls-1" d="M394.87,166.29s-72.4-43.35-104.46-3.88S394.87,166.29,394.87,166.29Z" transform="translate(-264.26 -69.1)"/><g class="cls-2"><path class="cls-3" d="M394.12,166.27s-21.16,1-22.94,0-23.65.45-23.65.45-1.19,2.46-5.14,0c-4.32.14-3.11,5.59-7.94,3.83s-17.66,2.77-17.66,2.77l-8,1h-4.67s-13.47,6.54.48,8.3,22.71,1,22.71,1l15.09-5.54,21.47-3.24,9.69-5.82Z" transform="translate(-264.26 -69.1)"/><path class="cls-4" d="M318.44,174.68a30.06,30.06,0,0,1,1.21,5.83,13.5,13.5,0,0,1,0,3,4,4,0,0,1-1.28,2.61,3.84,3.84,0,0,0,1-2.64,12.66,12.66,0,0,0-.2-2.88A28.6,28.6,0,0,0,317.5,175Z" transform="translate(-264.26 -69.1)"/><path class="cls-4" d="M324.3,174.68a22.28,22.28,0,0,1,1,6,9,9,0,0,1-.36,3,4.28,4.28,0,0,1-1.71,2.42,4.12,4.12,0,0,0,1.47-2.49,8.88,8.88,0,0,0,.1-2.91,21.64,21.64,0,0,0-1.48-5.67Z" transform="translate(-264.26 -69.1)"/><path class="cls-4" d="M330.18,174.33c-.37,2-.68,3.94-.89,5.93-.1,1-.18,2-.19,3a12.55,12.55,0,0,0,.07,1.5,2.21,2.21,0,0,0,.51,1.36,2.22,2.22,0,0,1-.63-1.34,11,11,0,0,1-.2-1.51c-.07-1-.08-2-.06-3,0-2,.19-4,.4-6Z" transform="translate(-264.26 -69.1)"/><path class="cls-4" d="M335.93,173.37a53.61,53.61,0,0,1-.14,5.95,24.3,24.3,0,0,1-.39,3,5.51,5.51,0,0,1-1.16,2.7,5.42,5.42,0,0,0,.91-2.74,26,26,0,0,0,.15-2.93,57.06,57.06,0,0,0-.37-5.85Z" transform="translate(-264.26 -69.1)"/><path class="cls-4" d="M347.34,171.94a38.83,38.83,0,0,0-.67,4.3,13.12,13.12,0,0,0-.06,2.17,3.8,3.8,0,0,0,.18,1.06.88.88,0,0,0,.71.71.94.94,0,0,1-.83-.66,4.59,4.59,0,0,1-.31-1.08,13.77,13.77,0,0,1-.19-2.22,38.89,38.89,0,0,1,.19-4.44Z" transform="translate(-264.26 -69.1)"/><path class="cls-4" d="M354.18,171.82a30.41,30.41,0,0,0,.17,3.16,11.66,11.66,0,0,0,.26,1.55,3.58,3.58,0,0,0,.25.74c.11.23.27.48.54.51a.85.85,0,0,1-.65-.44,5.06,5.06,0,0,1-.38-.73,13.94,13.94,0,0,1-.52-1.54,30.19,30.19,0,0,1-.66-3.17Z" transform="translate(-264.26 -69.1)"/><path class="cls-4" d="M362.29,170.94a11,11,0,0,1,.57,2.56,4.26,4.26,0,0,1-.39,2.52,4,4,0,0,0-.1-2.43,10.78,10.78,0,0,0-1-2.22Z" transform="translate(-264.26 -69.1)"/><path class="cls-4" d="M368.8,166.65a13.35,13.35,0,0,0,.19,3.27,5,5,0,0,0,1.45,2.93,5.29,5.29,0,0,1-1.94-2.79,12.24,12.24,0,0,1-.45-1.68,16.19,16.19,0,0,1-.25-1.74Z" transform="translate(-264.26 -69.1)"/><path class="cls-4" d="M307,175.94a36,36,0,0,0,1.47,6.61,15.76,15.76,0,0,0,1.38,3.08,4.43,4.43,0,0,0,2.5,2.16,4.52,4.52,0,0,1-2.7-2,15.5,15.5,0,0,1-1.65-3.05,37.7,37.7,0,0,1-2-6.62Z" transform="translate(-264.26 -69.1)"/><path class="cls-4" d="M314.31,177.5a15.33,15.33,0,0,1,1.45,3.39,6.57,6.57,0,0,1,.27,1.82,2.45,2.45,0,0,1-.57,1.7,2.35,2.35,0,0,0,.32-1.69,6.65,6.65,0,0,0-.49-1.67,14.54,14.54,0,0,0-1.81-3Z" transform="translate(-264.26 -69.1)"/><path class="cls-4" d="M320.77,175.39c-.1,1.6-.17,3.21-.19,4.82,0,.8,0,1.61,0,2.41A6.41,6.41,0,0,0,321,185a6.41,6.41,0,0,1-.64-2.33c-.12-.8-.21-1.6-.28-2.41-.15-1.61-.24-3.23-.31-4.85Z" transform="translate(-264.26 -69.1)"/><path class="cls-4" d="M363.57,168.23c.5,1.06,1,2.12,1.58,3.15.27.52.56,1,.86,1.54.15.25.3.49.47.73s.33.5.61.61a1.66,1.66,0,0,1-.7-.53c-.21-.21-.4-.44-.59-.67q-.56-.69-1.08-1.41c-.7-1-1.36-1.94-2-2.93Z" transform="translate(-264.26 -69.1)"/><path class="cls-4" d="M358.17,169.55a29.49,29.49,0,0,1,1.06,4.08,14.67,14.67,0,0,1,.22,2.09,4.79,4.79,0,0,1-.3,2.06,4.68,4.68,0,0,0,.05-2,12.47,12.47,0,0,0-.46-2,27.87,27.87,0,0,0-1.49-3.81Z" transform="translate(-264.26 -69.1)"/><path class="cls-4" d="M341.06,172.85a33.67,33.67,0,0,0,.24,5.4,10,10,0,0,0,.67,2.59,2.33,2.33,0,0,0,.79,1,1.3,1.3,0,0,0,1.28,0,1.39,1.39,0,0,1-1.34.07,2.46,2.46,0,0,1-.95-1,10.65,10.65,0,0,1-.94-2.62,33.72,33.72,0,0,1-.75-5.49Z" transform="translate(-264.26 -69.1)"/><path class="cls-4" d="M344.54,171.92a27.52,27.52,0,0,0-.26,5.45,11.15,11.15,0,0,0,.46,2.68,3,3,0,0,0,1.66,2,3.15,3.15,0,0,1-1.89-2,11.64,11.64,0,0,1-.73-2.72,28.4,28.4,0,0,1-.24-5.61Z" transform="translate(-264.26 -69.1)"/></g><g class="cls-2"><path class="cls-4" d="M383,97.56c0,.51.06,1,.06,1.56s-.09,1-.14,1.57a13.54,13.54,0,0,1-.31,1.54,11.22,11.22,0,0,1-.41,1.51,34.33,34.33,0,0,1-2.46,5.74,50.13,50.13,0,0,1-3.34,5.25c-.62.83-1.25,1.65-1.9,2.45s-1.35,1.57-2.1,2.29l-.06,0c1.26-1.62,2.45-3.3,3.58-5s2.19-3.47,3.16-5.28a39.65,39.65,0,0,0,2.57-5.58,18.72,18.72,0,0,0,1.28-6Z" transform="translate(-264.26 -69.1)"/><path class="cls-4" d="M373.9,119.43c.25-.91.54-1.81.77-2.72s.52-1.79.75-2.7c.47-1.8,1-3.58,1.3-5.41a45.94,45.94,0,0,0,.87-5.46,23.35,23.35,0,0,0,.13-2.77,26.36,26.36,0,0,0-.09-2.8l.07,0a26.77,26.77,0,0,1-.25,11.2,52.52,52.52,0,0,1-1.47,5.44c-.59,1.79-1.25,3.55-2,5.27Z" transform="translate(-264.26 -69.1)"/><path class="cls-4" d="M376,119.42c.44-.86.92-1.69,1.37-2.54l1.41-2.5c.94-1.67,1.91-3.31,2.79-5s1.79-3.35,2.6-5.06l.58-1.29.48-1.33c.18-.44.27-.89.41-1.35s.14-.92.23-1.4H386a13.91,13.91,0,0,1-1.23,5.6,52.66,52.66,0,0,1-2.48,5.2,104.82,104.82,0,0,1-6.17,9.72Z" transform="translate(-264.26 -69.1)"/><path class="cls-4" d="M377.63,119.43c.19-.89.45-1.75.66-2.62l.77-2.59c.51-1.71,1.12-3.4,1.64-5.11s1.18-3.37,1.78-5c.3-.84.6-1.69.86-2.54a17.18,17.18,0,0,0,.73-2.57h.08a26.29,26.29,0,0,1-1.11,5.27c-.5,1.72-1.06,3.43-1.63,5.13-1.17,3.4-2.41,6.76-3.71,10.11Z" transform="translate(-264.26 -69.1)"/><path class="cls-4" d="M379.54,119.43c.26-.73.59-1.43.89-2.14l1-2.08c.66-1.38,1.39-2.72,2.06-4.09s1.42-2.68,2.16-4c.36-.67.71-1.34,1.05-2s.66-1.36,1-2.07h.08a23.51,23.51,0,0,1-1.58,4.32c-.63,1.39-1.32,2.76-2,4.12q-2.16,4.05-4.52,8Z" transform="translate(-264.26 -69.1)"/><path class="cls-4" d="M381,119.43c.17-.71.43-1.39.64-2.09l.78-2c.55-1.34,1.2-2.63,1.84-3.93s1.4-2.53,2.24-3.72a11.29,11.29,0,0,1,3-3.21l.05.06A15,15,0,0,0,387,108c-.74,1.23-1.41,2.5-2.08,3.77-1.35,2.54-2.63,5.12-3.85,7.72Z" transform="translate(-264.26 -69.1)"/><path class="cls-4" d="M382.93,119.43a19.31,19.31,0,0,1,.36-2c.17-.65.37-1.29.56-1.94a35.67,35.67,0,0,1,1.54-3.73,20.75,20.75,0,0,1,2.24-3.42,14.37,14.37,0,0,1,1.45-1.47l.88-.57a9.61,9.61,0,0,1,1-.4l0,.07a8.55,8.55,0,0,0-2.84,2.71,25.1,25.1,0,0,0-2,3.42,52.49,52.49,0,0,0-3.06,7.35Z" transform="translate(-264.26 -69.1)"/><path class="cls-4" d="M392.57,106c-.22.24-.44.47-.66.68s-.38.49-.57.73a12,12,0,0,0-1,1.52,28.15,28.15,0,0,0-1.76,3.25c-.6,1.08-1.08,2.23-1.62,3.36-.28.56-.54,1.13-.8,1.71s-.55,1.14-.86,1.71l-.07,0a43.7,43.7,0,0,1,2.68-7.1,21.91,21.91,0,0,1,2-3.25,10,10,0,0,1,2.7-2.65Z" transform="translate(-264.26 -69.1)"/><path class="cls-4" d="M378.61,119.2c.21-.66.49-1.29.73-1.94l.83-1.89c.57-1.25,1.21-2.46,1.8-3.69s1.28-2.42,2-3.6c.34-.59.67-1.19,1-1.79s.66-1.19,1-1.81l.07,0a26.32,26.32,0,0,1-1.52,3.83c-.58,1.24-1.19,2.47-1.82,3.69q-1.9,3.65-3.95,7.22Z" transform="translate(-264.26 -69.1)"/><path class="cls-4" d="M370.82,118.91l1-2.46c.35-.8.69-1.61,1-2.43.66-1.62,1.32-3.24,1.82-4.9.31-.82.54-1.65.78-2.48s.39-1.68.54-2.52a9.24,9.24,0,0,0,.18-1.27,11.15,11.15,0,0,0,.07-1.29c0-.42,0-.86,0-1.29s-.15-.86-.2-1.3l.06,0a11.14,11.14,0,0,1,.49,5.25,24,24,0,0,1-1.18,5.16,45.65,45.65,0,0,1-2,4.92c-.76,1.59-1.58,3.16-2.49,4.68Z" transform="translate(-264.26 -69.1)"/><path class="cls-4" d="M369,118.9l.95-2c.34-.64.67-1.28,1-1.93.64-1.28,1.31-2.55,1.84-3.86a25.89,25.89,0,0,0,1.53-3.94,11.81,11.81,0,0,0,.46-2c0-.35.09-.7.11-1s0-.71,0-1.08l.07,0a8.55,8.55,0,0,1,0,4.32,20.85,20.85,0,0,1-1.4,4.12A45.37,45.37,0,0,1,369,119Z" transform="translate(-264.26 -69.1)"/><path class="cls-4" d="M367.37,118.91l1-2.4c.37-.79.73-1.58,1.07-2.37.69-1.58,1.41-3.14,2-4.75a35.27,35.27,0,0,0,1.65-4.83,17.77,17.77,0,0,0,.52-2.49l.12-1.27c0-.42,0-.85-.06-1.29l.07,0a11.24,11.24,0,0,1-.08,5.19,28.94,28.94,0,0,1-1.53,5,61.07,61.07,0,0,1-4.74,9.29Z" transform="translate(-264.26 -69.1)"/><path class="cls-4" d="M365.38,118.9c.47-.77.95-1.52,1.35-2.32s.84-1.55,1.21-2.35a30.19,30.19,0,0,0,1.89-4.88,21.71,21.71,0,0,0,1-5.1l.09-1.31,0-1.31c.06-.9-.18-1.75-.2-2.67l.07,0a18.06,18.06,0,0,1,.66,5.32,19.83,19.83,0,0,1-.85,5.3,27.65,27.65,0,0,1-5.11,9.39Z" transform="translate(-264.26 -69.1)"/><path class="cls-4" d="M363.66,118.9l1.35-2.15c.47-.7.93-1.4,1.37-2.11.9-1.42,1.83-2.8,2.64-4.26a32.6,32.6,0,0,0,2.29-4.38,12.16,12.16,0,0,0,.8-2.31,6.71,6.71,0,0,0,.22-2.45l.08,0a8.61,8.61,0,0,1-.55,5,27.74,27.74,0,0,1-2.2,4.56,61.32,61.32,0,0,1-6,8.19Z" transform="translate(-264.26 -69.1)"/><path class="cls-4" d="M362.32,118.92c0-.91,0-1.81,0-2.71l.09-2.69c.06-1.8.19-3.58.23-5.37s.18-3.57.23-5.34a26.19,26.19,0,0,0,0-2.66,6.47,6.47,0,0,0-.5-2.57l.06,0a5.91,5.91,0,0,1,.83,2.56,26.86,26.86,0,0,1,.23,2.69c.06,1.8,0,3.6-.06,5.4-.19,3.59-.54,7.17-1,10.74Z" transform="translate(-264.26 -69.1)"/><path class="cls-4" d="M363.08,118.91l.52-2.78c.19-.92.38-1.83.54-2.76.34-1.83.74-3.66,1-5.5s.57-3.67.73-5.52c.06-.46.08-.92.11-1.38s.05-.93,0-1.39,0-.94,0-1.4-.06-.93-.07-1.41l.07,0a23.14,23.14,0,0,1,.42,5.63,46,46,0,0,1-.57,5.61c-.3,1.86-.7,3.7-1.15,5.52s-1,3.64-1.55,5.43Z" transform="translate(-264.26 -69.1)"/><path class="cls-4" d="M365.38,115.31c.21-.66.45-1.3.63-2s.42-1.29.59-1.94a35.6,35.6,0,0,0,1-3.89,27.72,27.72,0,0,0,.61-4l.1-1,0-1c.09-.68,0-1.35.05-2l.08,0a20,20,0,0,1,.32,4.09,21.72,21.72,0,0,1-.46,4.09,27.45,27.45,0,0,1-2.85,7.68Z" transform="translate(-264.26 -69.1)"/><path class="cls-4" d="M360.12,118.16c.17-.85.4-1.67.59-2.51l.66-2.48c.44-1.64,1-3.26,1.37-4.91s.92-3.26,1.33-4.9a23,23,0,0,0,.51-2.47,8.78,8.78,0,0,0,.15-2.51l.07,0a12.94,12.94,0,0,1-.16,5.11c-.3,1.68-.73,3.34-1.18,5-.95,3.29-2,6.53-3.27,9.73Z" transform="translate(-264.26 -69.1)"/><path class="cls-4" d="M358.39,118.16l.5-2.42c.18-.79.36-1.59.52-2.39.35-1.59.73-3.17,1-4.77a43,43,0,0,0,.75-4.77,9.73,9.73,0,0,0,.11-1.2c0-.4.07-.81.05-1.21s0-.81,0-1.21-.07-.81-.08-1.23l.07,0a16.82,16.82,0,0,1,.41,4.9,33.35,33.35,0,0,1-.59,4.88c-.31,1.62-.7,3.21-1.15,4.79s-1,3.14-1.52,4.68Z" transform="translate(-264.26 -69.1)"/><path class="cls-4" d="M357.28,118.16l.45-2.7c.17-.89.33-1.78.48-2.68.3-1.78.62-3.56.81-5.34a38.47,38.47,0,0,0,.45-5.34,18.29,18.29,0,0,0-.08-2.67c-.06-.44-.1-.89-.17-1.33s-.23-.87-.33-1.32l.07,0a13.53,13.53,0,0,1,1.1,5.33,33.09,33.09,0,0,1-.3,5.45,65.78,65.78,0,0,1-2.41,10.66Z" transform="translate(-264.26 -69.1)"/><path class="cls-4" d="M355.79,118.17l.29-2.79c.12-.92.24-1.84.33-2.76.21-1.84.45-3.67.56-5.51a48.05,48.05,0,0,0,.27-5.49,22.58,22.58,0,0,0-.12-2.73L357,97.52c-.11-.44-.21-.9-.3-1.36l.07,0a16.48,16.48,0,0,1,1.09,5.46,38.65,38.65,0,0,1-.11,5.59,75.86,75.86,0,0,1-1.85,11Z" transform="translate(-264.26 -69.1)"/><path class="cls-4" d="M354.68,118.17c0-.82.09-1.63.12-2.44l.21-2.42c.14-1.6.35-3.2.47-4.8s.3-3.18.43-4.77c0-.8.09-1.59.08-2.39,0-.4,0-.79,0-1.19s-.12-.78-.17-1.19l.07,0a14.19,14.19,0,0,1,.63,4.8c0,1.62-.12,3.24-.27,4.85q-.53,4.83-1.47,9.59Z" transform="translate(-264.26 -69.1)"/><path class="cls-4" d="M342.05,118.16c.16-.94.36-1.87.49-2.82s.34-1.86.48-2.8c.28-1.86.59-3.72.7-5.59a27.93,27.93,0,0,0,.06-5.56,12.89,12.89,0,0,0-.52-2.7,7.9,7.9,0,0,0-1.2-2.52l.06,0a9.54,9.54,0,0,1,2.23,5.19,24.79,24.79,0,0,1,.11,5.71,46.55,46.55,0,0,1-.87,5.64,55.59,55.59,0,0,1-1.47,5.53Z" transform="translate(-264.26 -69.1)"/><path class="cls-4" d="M347.57,96.75a16.08,16.08,0,0,1,.68,2.67c.09.46.1.92.15,1.37s.08.92.08,1.38a38.57,38.57,0,0,1-.32,5.48,51.36,51.36,0,0,1-1.08,5.36c-.24.88-.49,1.75-.76,2.62s-.59,1.72-1,2.55l-.07,0a83.43,83.43,0,0,0,2.15-10.61,48.82,48.82,0,0,0,.48-5.39,23.16,23.16,0,0,0-.4-5.39Z" transform="translate(-264.26 -69.1)"/><path class="cls-4" d="M348.74,117.67c.16-1,.38-1.9.54-2.86s.41-1.88.59-2.83c.39-1.88.82-3.75,1.12-5.64a49.55,49.55,0,0,0,.85-5.64,17.72,17.72,0,0,0,.07-2.82,5.82,5.82,0,0,0-.69-2.7l.06-.05a5.68,5.68,0,0,1,1,2.7,16.45,16.45,0,0,1,.12,2.89,41.17,41.17,0,0,1-.69,5.76,96.13,96.13,0,0,1-2.92,11.21Z" transform="translate(-264.26 -69.1)"/><path class="cls-4" d="M347.13,118.17l.15-2.66c.08-.88.14-1.76.19-2.64.11-1.76.26-3.51.26-5.25a34.65,34.65,0,0,0-.12-5.2,12.45,12.45,0,0,0-.46-2.52A6.05,6.05,0,0,0,346,97.59l0-.06a8.23,8.23,0,0,1,2.12,4.8,29.51,29.51,0,0,1,.29,5.31,66.69,66.69,0,0,1-1.28,10.54Z" transform="translate(-264.26 -69.1)"/><path class="cls-4" d="M353.07,118.17c.08-.92.23-1.82.32-2.72l.39-2.7c.25-1.79.56-3.56.76-5.35s.46-3.57.59-5.35a19.72,19.72,0,0,0,.05-2.66,6.92,6.92,0,0,0-.5-2.61l.06,0a6.46,6.46,0,0,1,.83,2.59,20.82,20.82,0,0,1,.15,2.73,49.64,49.64,0,0,1-.44,5.44,101.92,101.92,0,0,1-2.14,10.68Z" transform="translate(-264.26 -69.1)"/><path class="cls-4" d="M350.54,117.67c.15-.74.36-1.45.52-2.17l.57-2.13c.39-1.42.82-2.81,1.16-4.23s.74-2.81,1.07-4.22a21.56,21.56,0,0,0,.38-2.13l.11-1.08v-1.1l.07,0a11.89,11.89,0,0,1,0,4.41,37.58,37.58,0,0,1-.91,4.34,74.3,74.3,0,0,1-2.91,8.35Z" transform="translate(-264.26 -69.1)"/><path class="cls-4" d="M348.74,114.82c0-.7.09-1.39.12-2.09l.19-2.06c.13-1.37.32-2.73.4-4.1s.27-2.72.36-4.07c.07-.68.07-1.36.08-2,0-.34,0-.68,0-1s0-.68,0-1l.07,0a16.94,16.94,0,0,1,.47,4.13,36.09,36.09,0,0,1-.19,4.16,68.65,68.65,0,0,1-1.39,8.19Z" transform="translate(-264.26 -69.1)"/><path class="cls-4" d="M343.26,117.67c.19-.89.41-1.76.58-2.64s.39-1.74.54-2.61a49.43,49.43,0,0,0,.83-5.23,28.75,28.75,0,0,0,.24-5.24,19.15,19.15,0,0,0-.29-2.6,11.4,11.4,0,0,0-.28-1.29c-.14-.41-.28-.84-.4-1.28l.06,0a14.08,14.08,0,0,1,1.49,5.15,24.81,24.81,0,0,1-.08,5.38,39.46,39.46,0,0,1-1,5.29,45.59,45.59,0,0,1-1.62,5.13Z" transform="translate(-264.26 -69.1)"/><path class="cls-4" d="M333,96.13a27.75,27.75,0,0,1,1.73,5.34,41.7,41.7,0,0,1,.78,5.57,47.73,47.73,0,0,1,0,5.61c-.09.93-.19,1.86-.32,2.79a25.78,25.78,0,0,1-.61,2.74h-.07a57.07,57.07,0,0,0,.3-11.09,51,51,0,0,0-.61-5.51,45.48,45.48,0,0,0-1.22-5.41Z" transform="translate(-264.26 -69.1)"/><path class="cls-4" d="M340.74,117.67c0-.9,0-1.8-.09-2.7s-.07-1.8-.13-2.69c-.11-1.79-.2-3.58-.39-5.36s-.31-3.57-.44-5.36-.32-3.59-.39-5.41h.08q.5,2.65.89,5.34c.24,1.79.46,3.58.61,5.38s.22,3.61.23,5.42a40.88,40.88,0,0,1-.3,5.41Z" transform="translate(-264.26 -69.1)"/><path class="cls-4" d="M338.64,118.91l1.3-5.35c.42-1.78.87-3.54,1.14-5.34a33.46,33.46,0,0,0,.68-5.35,14,14,0,0,0-.08-2.67,8.35,8.35,0,0,0-.66-2.62l.07,0a10.49,10.49,0,0,1,1.26,5.33,28.93,28.93,0,0,1-.53,5.49,60,60,0,0,1-3.11,10.58Z" transform="translate(-264.26 -69.1)"/><path class="cls-4" d="M337.32,118.17c0-.92.1-1.82.13-2.72l.19-2.7c.12-1.8.28-3.58.33-5.37s.15-3.57.13-5.35l0-1.33-.14-1.32c-.05-.44-.14-.87-.21-1.31s-.27-.84-.39-1.29l.07,0a12.93,12.93,0,0,1,1.29,5.25,44.72,44.72,0,0,1,0,5.43,86.63,86.63,0,0,1-1.33,10.76Z" transform="translate(-264.26 -69.1)"/><path class="cls-4" d="M335.66,118.17c-.12-.86-.16-1.72-.25-2.59l-.15-2.58c-.09-1.72-.08-3.44-.15-5.16s0-3.43,0-5.14c0-.86,0-1.72,0-2.57a15.75,15.75,0,0,0-.18-2.56l.07,0a23.24,23.24,0,0,1,.72,5.12c.11,1.72.15,3.44.19,5.16,0,3.45,0,6.9-.12,10.35Z" transform="translate(-264.26 -69.1)"/><path class="cls-4" d="M336.5,118.17c0-.94,0-1.87,0-2.81l.1-2.79c.06-1.85.18-3.7.18-5.55s.08-3.69,0-5.52a20.67,20.67,0,0,0-.25-2.73,7.34,7.34,0,0,0-.8-2.6l.06,0A6.91,6.91,0,0,1,337,98.68a20.09,20.09,0,0,1,.45,2.76,47.55,47.55,0,0,1,.16,5.6,103.8,103.8,0,0,1-1,11.14Z" transform="translate(-264.26 -69.1)"/><path class="cls-4" d="M329.82,118.17c-.12-.9-.17-1.8-.28-2.69l-.23-2.69c-.16-1.78-.26-3.57-.45-5.34s-.33-3.56-.5-5.34c-.1-.88-.19-1.77-.33-2.66s-.26-1.77-.36-2.68l.08,0a56.33,56.33,0,0,1,1.85,10.63,102.43,102.43,0,0,1,.3,10.8Z" transform="translate(-264.26 -69.1)"/><path class="cls-4" d="M331.44,118.92c-.11-1-.14-1.91-.23-2.87l-.14-2.87c-.09-1.91-.1-3.81-.21-5.71s-.12-3.81-.22-5.7c-.05-.94-.11-1.89-.24-2.83a13.39,13.39,0,0,0-.54-2.78l.06,0a18.16,18.16,0,0,1,1.3,5.58c.21,1.9.31,3.82.39,5.73.1,3.83.06,7.66-.1,11.49Z" transform="translate(-264.26 -69.1)"/><path class="cls-4" d="M332.88,118.17c0-.94,0-1.87,0-2.8l0-2.79c0-1.85.07-3.7,0-5.55s-.08-3.67-.21-5.5c-.05-.45-.08-.91-.14-1.37l-.21-1.35-.3-1.34-.46-1.31.06,0a14.06,14.06,0,0,1,1.62,5.33,45.22,45.22,0,0,1,.39,5.58,88.43,88.43,0,0,1-.7,11.15Z" transform="translate(-264.26 -69.1)"/><path class="cls-4" d="M327.67,118.93c-.15-.87-.25-1.73-.39-2.59l-.33-2.58c-.22-1.71-.36-3.43-.62-5.13s-.42-3.42-.64-5.12c-.12-.85-.23-1.71-.39-2.55s-.3-1.7-.42-2.58l.07,0a54.35,54.35,0,0,1,2.13,10.18c.39,3.45.61,6.92.67,10.39Z" transform="translate(-264.26 -69.1)"/><path class="cls-4" d="M326.27,118.16l.29-2.51c.11-.83.22-1.66.3-2.49.2-1.65.42-3.3.5-5,.09-.82.13-1.65.18-2.47s0-1.65,0-2.46a15.59,15.59,0,0,0-.19-2.46c-.06-.4-.11-.81-.19-1.22s-.23-.79-.33-1.21l.06,0a13.56,13.56,0,0,1,1.23,4.88,29.25,29.25,0,0,1,0,5,58.44,58.44,0,0,1-1.75,9.91Z" transform="translate(-264.26 -69.1)"/><path class="cls-4" d="M328.12,116.9c.09-.79.23-1.56.33-2.35s.26-1.54.37-2.31c.24-1.55.53-3.08.69-4.62a42.26,42.26,0,0,0,.5-4.6,17.82,17.82,0,0,0,.05-2.31L330,99.55c-.06-.38-.11-.77-.16-1.16l.07,0a13.64,13.64,0,0,1,.67,4.66,32.11,32.11,0,0,1-.34,4.7,64.06,64.06,0,0,1-2.06,9.2Z" transform="translate(-264.26 -69.1)"/><path class="cls-4" d="M323,118.92l.37-5c.11-1.66.26-3.32.26-5a48.47,48.47,0,0,0,0-5,22.67,22.67,0,0,0-.23-2.47c0-.84-.25-1.64-.37-2.49l.07,0a28.09,28.09,0,0,1,1.31,10,55.44,55.44,0,0,1-1.31,10Z" transform="translate(-264.26 -69.1)"/><path class="cls-4" d="M324.88,118.17c0-.81.11-1.6.11-2.39s.07-1.58.05-2.36a34.3,34.3,0,0,0-.29-4.66,22.14,22.14,0,0,0-1-4.49,13.83,13.83,0,0,0-.92-2.13,19.34,19.34,0,0,0-1.17-2.06l.05,0a14.4,14.4,0,0,1,2.58,4,19.52,19.52,0,0,1,1.22,4.63,26.35,26.35,0,0,1,.13,4.78,27.92,27.92,0,0,1-.67,4.73Z" transform="translate(-264.26 -69.1)"/><path class="cls-4" d="M321.63,118.16c.05-.69.14-1.36.19-2s.16-1.34.22-2c.14-1.34.31-2.67.35-4a23.72,23.72,0,0,0,.06-4,10.6,10.6,0,0,0-.23-2c-.08-.32-.14-.65-.23-1s-.24-.62-.35-.95l.06,0a8.57,8.57,0,0,1,1.33,3.83,19.87,19.87,0,0,1,.11,4.08,42.14,42.14,0,0,1-1.44,8Z" transform="translate(-264.26 -69.1)"/><path class="cls-4" d="M313.62,116.29c0-.66.13-1.3.18-2s.17-1.28.24-1.92c.15-1.27.37-2.53.46-3.8a28.15,28.15,0,0,0,.3-3.76,9.44,9.44,0,0,0-.11-1.85,4.08,4.08,0,0,0-.61-1.76l.06,0a5.73,5.73,0,0,1,1.24,3.62,23,23,0,0,1-.13,3.89,53.36,53.36,0,0,1-1.56,7.6Z" transform="translate(-264.26 -69.1)"/><path class="cls-4" d="M317.12,116.28c.12-.68.29-1.34.4-2s.3-1.32.43-2c.27-1.32.57-2.63.73-4a20,20,0,0,0,.36-3.91,9,9,0,0,0-.17-1.94l-.24-.95c-.15-.29-.29-.59-.43-.92l.05-.05a6.42,6.42,0,0,1,1.37,3.81,17.44,17.44,0,0,1-.2,4.08,38.86,38.86,0,0,1-2.23,7.85Z" transform="translate(-264.26 -69.1)"/><path class="cls-4" d="M318.35,118.92c0-.73.07-1.45.07-2.17s.1-1.44.12-2.15c.07-1.43.18-2.84.15-4.26a26.56,26.56,0,0,0-.15-4.19,8.66,8.66,0,0,0-.43-2,5,5,0,0,0-1-1.83l0-.06a6.28,6.28,0,0,1,1.93,3.8,21.48,21.48,0,0,1,.33,4.31,47.53,47.53,0,0,1-1,8.58Z" transform="translate(-264.26 -69.1)"/><path class="cls-4" d="M319.58,117.67a40.75,40.75,0,0,1,.69-6.66c.19-1.09.39-2.17.62-3.25s.49-2.16.74-3.27h.08a45.06,45.06,0,0,1-.71,6.65c-.38,2.19-.84,4.38-1.35,6.55Z" transform="translate(-264.26 -69.1)"/><path class="cls-4" d="M314.47,118.15l1.3-3a30.82,30.82,0,0,0,1.11-3,12.88,12.88,0,0,0,.63-3,8.11,8.11,0,0,0-.38-3.13l.06,0a6.26,6.26,0,0,1,.91,3.15,10.3,10.3,0,0,1-.51,3.27,17.81,17.81,0,0,1-1.3,3.05,22.66,22.66,0,0,1-1.76,2.8Z" transform="translate(-264.26 -69.1)"/><path class="cls-4" d="M317.12,118.17a66.83,66.83,0,0,1-.62-6.84l-.15-3.39c-.06-1.13-.09-2.27-.11-3.44l.08,0a40,40,0,0,1,.93,6.82,65.79,65.79,0,0,1-.05,6.88Z" transform="translate(-264.26 -69.1)"/><path class="cls-4" d="M312.4,118.16c.06-1.17.12-2.33.2-3.46s.14-2.27.16-3.4,0-2.25,0-3.38-.18-2.25-.34-3.42l.07,0a18.13,18.13,0,0,1,1,6.85,30.69,30.69,0,0,1-1,6.87Z" transform="translate(-264.26 -69.1)"/><path class="cls-4" d="M315.32,113.86l-.85-2.65a26.33,26.33,0,0,0-.92-2.5,12.22,12.22,0,0,0-1.24-2.28,9.11,9.11,0,0,0-1.87-1.91l0-.07a6.22,6.22,0,0,1,2.29,1.59,8.82,8.82,0,0,1,1.48,2.37,13.28,13.28,0,0,1,.82,2.67,17.31,17.31,0,0,1,.34,2.78Z" transform="translate(-264.26 -69.1)"/><path class="cls-4" d="M310.41,118.16c0-.69.15-1.37.18-2.06s.15-1.35.19-2a34,34,0,0,0,.17-4,19.39,19.39,0,0,0-.25-4,8.3,8.3,0,0,0-.19-1,6.41,6.41,0,0,0-.27-1,8.28,8.28,0,0,0-.34-1c-.15-.29-.29-.6-.43-.93l.06-.05a9.92,9.92,0,0,1,1.74,3.72,17,17,0,0,1,.43,4.09,26.93,26.93,0,0,1-.35,4.11,34.81,34.81,0,0,1-.86,4Z" transform="translate(-264.26 -69.1)"/><path class="cls-4" d="M307.94,118.16c0-1.06.09-2.1.19-3.12s.17-2,.21-3.05a27.52,27.52,0,0,0,0-3,13.83,13.83,0,0,0-.43-3l.06,0a8.42,8.42,0,0,1,1,3,16.4,16.4,0,0,1,.12,3.13,29.89,29.89,0,0,1-1.08,6.16Z" transform="translate(-264.26 -69.1)"/><path class="cls-4" d="M309.46,116.29c.06-1.13.08-2.24.12-3.32s0-2.16-.07-3.22a22.24,22.24,0,0,0-.47-3.14,19.14,19.14,0,0,0-1.09-3.07l.06-.05a10.51,10.51,0,0,1,1.58,2.93,14.62,14.62,0,0,1,.67,3.27,20.55,20.55,0,0,1-.73,6.62Z" transform="translate(-264.26 -69.1)"/><path class="cls-4" d="M306.3,117.67c0-1.19,0-2.37.05-3.52s.08-2.31.07-3.45a21.75,21.75,0,0,0-.23-3.35,4.13,4.13,0,0,0-1.52-2.83l0-.07a3.87,3.87,0,0,1,2.06,2.75,14.69,14.69,0,0,1,.41,3.5,36.53,36.53,0,0,1-.8,7Z" transform="translate(-264.26 -69.1)"/><path class="cls-4" d="M304.65,116.92c-.2-.63-.3-1.27-.44-1.9l-.27-1.92a38.54,38.54,0,0,1-.17-3.87,23.31,23.31,0,0,1,.45-3.89,9.57,9.57,0,0,1,.65-1.91,3.15,3.15,0,0,1,.62-.84,1.1,1.1,0,0,1,1-.36v.08c-.66,0-1,.7-1.22,1.26a9.15,9.15,0,0,0-.44,1.86,28.6,28.6,0,0,0-.28,3.81c-.07,2.56,0,5.12.2,7.67Z" transform="translate(-264.26 -69.1)"/><path class="cls-4" d="M305.4,114.83c-.27-1.8-.34-3.51-.56-5.18a12.12,12.12,0,0,0-.52-2.38,3.78,3.78,0,0,0-1.42-2l0-.07a3.21,3.21,0,0,1,1.92,1.76,8.14,8.14,0,0,1,.74,2.54,20.82,20.82,0,0,1-.1,5.29Z" transform="translate(-264.26 -69.1)"/><path class="cls-4" d="M302.88,116.91c-.15-.86-.27-1.69-.34-2.51l-.22-2.44c-.06-.81-.14-1.61-.26-2.39a12.55,12.55,0,0,0-.57-2.39l.06,0a6.79,6.79,0,0,1,1.08,2.27,13.86,13.86,0,0,1,.44,2.48,25.62,25.62,0,0,1-.12,5Z" transform="translate(-264.26 -69.1)"/><path class="cls-4" d="M300.73,116.9c.34-2.32.88-4.53,1.28-6.74a31.42,31.42,0,0,0,.48-3.31,8.51,8.51,0,0,0-.22-3.32l.06,0a6.55,6.55,0,0,1,.75,3.36,19,19,0,0,1-.33,3.45,39.37,39.37,0,0,1-1.95,6.63Z" transform="translate(-264.26 -69.1)"/><path class="cls-4" d="M298.38,104.46a6.58,6.58,0,0,1,2.18,2.65,9,9,0,0,1,.71,3.42,10.82,10.82,0,0,1-2.12,6.4l-.07,0a16.54,16.54,0,0,0,1.06-3.11,14.89,14.89,0,0,0,.38-3.26,10.1,10.1,0,0,0-.52-3.22,8.87,8.87,0,0,0-1.67-2.8Z" transform="translate(-264.26 -69.1)"/><path class="cls-4" d="M297.31,116.28c.11-1,.18-2,.25-2.88a23.49,23.49,0,0,0,0-2.78,13.52,13.52,0,0,0-.45-2.68,14.17,14.17,0,0,0-1.08-2.63l.05,0a8.28,8.28,0,0,1,1.58,2.46,9.59,9.59,0,0,1,.64,2.85,14.21,14.21,0,0,1-.94,5.74Z" transform="translate(-264.26 -69.1)"/><path class="cls-4" d="M294.78,116.9l.41-3.15a22.56,22.56,0,0,0,.19-3,6.34,6.34,0,0,0-.58-2.77,4.37,4.37,0,0,0-2.15-2l0-.07a5,5,0,0,1,1.49.58,3.84,3.84,0,0,1,1.14,1.13,5.92,5.92,0,0,1,.83,3.07,14.1,14.1,0,0,1-.36,3.18,22,22,0,0,1-.92,3.06Z" transform="translate(-264.26 -69.1)"/><path class="cls-4" d="M296,116.92a9.8,9.8,0,0,1-.07-5.29,13.15,13.15,0,0,1,.89-2.51,9.58,9.58,0,0,1,1.46-2.22l.07,0a24.63,24.63,0,0,0-1.69,4.87,19.57,19.57,0,0,0-.59,5.11Z" transform="translate(-264.26 -69.1)"/><path class="cls-4" d="M293.18,116.27a8.32,8.32,0,0,0,.41-2.5,7.74,7.74,0,0,0-.36-2.35,12.3,12.3,0,0,0-1-2.24l-.66-1.1c-.23-.37-.49-.72-.71-1.14l.05-.06.95.93c.29.34.58.67.85,1a8.43,8.43,0,0,1,1.23,2.36,6,6,0,0,1-.7,5.12Z" transform="translate(-264.26 -69.1)"/><path class="cls-4" d="M290.86,116.27c.4-.73.79-1.42,1.19-2.09s.78-1.32,1.09-2a10.36,10.36,0,0,0,.81-2,7.21,7.21,0,0,0,.19-2.27l.07,0a4.81,4.81,0,0,1,.32,2.37,7.17,7.17,0,0,1-.72,2.3,14.36,14.36,0,0,1-2.9,3.81Z" transform="translate(-264.26 -69.1)"/><path class="cls-4" d="M289,116.29c-.06-.78-.12-1.53-.14-2.26s-.05-1.44-.13-2.14a10.58,10.58,0,0,0-.32-2,6.4,6.4,0,0,0-.86-1.95l.05-.06a4.5,4.5,0,0,1,1.36,1.78,7.28,7.28,0,0,1,.52,2.2,14.76,14.76,0,0,1-.4,4.49Z" transform="translate(-264.26 -69.1)"/><path class="cls-4" d="M290.07,116.28c.14-.79.29-1.54.46-2.27a21.52,21.52,0,0,0,.39-2.14,6.36,6.36,0,0,0,0-2,4.41,4.41,0,0,0-.87-1.93l0-.06a3.46,3.46,0,0,1,1.39,1.82,5.3,5.3,0,0,1,.16,2.31,13,13,0,0,1-1.54,4.35Z" transform="translate(-264.26 -69.1)"/><path class="cls-4" d="M285.64,109.08a3.1,3.1,0,0,1,1.91,1.14,3.77,3.77,0,0,1,.73,2.2,4.93,4.93,0,0,1-.48,2.17,4.82,4.82,0,0,1-1.28,1.73l-.06,0a9.16,9.16,0,0,0,.78-1.86,6.15,6.15,0,0,0,.29-2,3.88,3.88,0,0,0-.49-1.91,4.08,4.08,0,0,0-1.43-1.37Z" transform="translate(-264.26 -69.1)"/><path class="cls-4" d="M281.37,116.28c.25-1,.51-2,.79-2.92s.53-1.89.69-2.82a5,5,0,0,0,0-2.58c-.23-.73-1.12-1.15-2.14-1.32v-.07a3.86,3.86,0,0,1,1.51.15,2,2,0,0,1,1.16,1,4.75,4.75,0,0,1,.23,3,21.9,21.9,0,0,1-2.15,5.64Z" transform="translate(-264.26 -69.1)"/><path class="cls-4" d="M283.62,116.28c.31-1,.63-1.87,1-2.76s.72-1.77,1-2.65a14.56,14.56,0,0,0,.77-2.61,2,2,0,0,0-.8-2.28l0-.07a1.83,1.83,0,0,1,1.11.93,3.12,3.12,0,0,1,.25,1.44,9.94,9.94,0,0,1-.66,2.85,30.56,30.56,0,0,1-2.65,5.19Z" transform="translate(-264.26 -69.1)"/><path class="cls-4" d="M279.41,115.33c-.22-.7-.42-1.37-.58-2s-.34-1.28-.56-1.88a6.47,6.47,0,0,0-.77-1.66,4.28,4.28,0,0,0-1.43-1.28v-.08a3.23,3.23,0,0,1,1.84,1,5,5,0,0,1,1.06,1.82,11.84,11.84,0,0,1,.51,4.14Z" transform="translate(-264.26 -69.1)"/><path class="cls-4" d="M276.93,114.84a10,10,0,0,0-1.64-1.81,6.13,6.13,0,0,0-1.92-1.15,8.58,8.58,0,0,0-2.24-.47c-.39,0-.8,0-1.22,0s-.83,0-1.28,0l0-.07,1.23-.32a10.73,10.73,0,0,1,1.27-.15,6.74,6.74,0,0,1,2.52.34,5.86,5.86,0,0,1,3.37,3.65Z" transform="translate(-264.26 -69.1)"/><path class="cls-4" d="M272.76,116.32c-.57-.24-1.1-.42-1.6-.63s-1-.4-1.51-.58l-1.54-.56c-.52-.18-1.05-.39-1.62-.65v-.08a12.49,12.49,0,0,1,1.73.15,9.89,9.89,0,0,1,1.68.44,8,8,0,0,1,2.92,1.86Z" transform="translate(-264.26 -69.1)"/><path class="cls-4" d="M269.61,116.93a5.59,5.59,0,0,0-1.14-.5,3.73,3.73,0,0,0-1-.17,10.22,10.22,0,0,0-1.09,0,10.8,10.8,0,0,1-1.33,0l0-.07a8.05,8.05,0,0,1,1.19-.55,4.06,4.06,0,0,1,1.3-.2,2.62,2.62,0,0,1,2.13,1.39Z" transform="translate(-264.26 -69.1)"/><path class="cls-4" d="M274.45,114.85c-.64-.43-1.27-.79-1.88-1.12a11.09,11.09,0,0,0-1.89-.81,10.94,10.94,0,0,0-2-.5c-.7-.13-1.41-.19-2.2-.3v-.07a9.28,9.28,0,0,1,2.23-.22,7.28,7.28,0,0,1,2.21.38,7.61,7.61,0,0,1,3.59,2.6Z" transform="translate(-264.26 -69.1)"/><path class="cls-4" d="M280.07,116.29c-.21-1.6-.19-3.09-.26-4.56a18.9,18.9,0,0,0-.17-2.15,5.28,5.28,0,0,0-.69-2.07l.05-.06a3.86,3.86,0,0,1,1.2,2,9.42,9.42,0,0,1,.36,2.29,20.4,20.4,0,0,1-.42,4.61Z" transform="translate(-264.26 -69.1)"/><path class="cls-4" d="M278.11,116.25c-.59-1.33-.94-2.6-1.4-3.79a7.83,7.83,0,0,0-.81-1.64,3.15,3.15,0,0,0-1.42-1.19v-.08a2.69,2.69,0,0,1,1.85.87,5.18,5.18,0,0,1,1.07,1.77,13.72,13.72,0,0,1,.78,4.06Z" transform="translate(-264.26 -69.1)"/><path class="cls-4" d="M275.26,116.3a15.38,15.38,0,0,1-1.2-3.49c-.13-.57-.27-1.13-.41-1.67a4.69,4.69,0,0,0-.27-.75.79.79,0,0,0-.58-.5l0-.07a.94.94,0,0,1,.88.29,2.9,2.9,0,0,1,.52.77,9.17,9.17,0,0,1,.61,1.76,25.11,25.11,0,0,1,.54,3.65Z" transform="translate(-264.26 -69.1)"/><path class="cls-4" d="M274,116a1.59,1.59,0,0,0-.68-1.14,5.09,5.09,0,0,0-1.17-.57c-.44-.17-.92-.32-1.41-.49a10.3,10.3,0,0,1-1.52-.66V113a11.5,11.5,0,0,1,3.19.51,3.38,3.38,0,0,1,1.36.9,1.57,1.57,0,0,1,.3,1.55Z" transform="translate(-264.26 -69.1)"/><path class="cls-4" d="M269.21,118.33a11.5,11.5,0,0,1-1.34,0c-.42,0-.8-.07-1.17-.09s-.73,0-1.11,0a11.92,11.92,0,0,0-1.27.14l-.05,0a3.1,3.1,0,0,1,1.16-.65,4.13,4.13,0,0,1,1.31-.16,6.66,6.66,0,0,1,2.51.8Z" transform="translate(-264.26 -69.1)"/><path class="cls-4" d="M267.63,119a4,4,0,0,1-1.72.73,6.71,6.71,0,0,1-.76.07,1.56,1.56,0,0,0-.81.18l-.08,0a1.13,1.13,0,0,1,.63-.69,4,4,0,0,1,.89-.28,8.82,8.82,0,0,1,1.85-.07Z" transform="translate(-264.26 -69.1)"/><path class="cls-4" d="M269.2,119.47c-.47-.33-.89-.63-1.26-.94s-.74-.6-1.1-.83a5,5,0,0,0-1.1-.58,4.8,4.8,0,0,0-1.42-.17l0-.07a3.05,3.05,0,0,1,1.51-.35,3.5,3.5,0,0,1,1.47.55,7,7,0,0,1,2,2.35Z" transform="translate(-264.26 -69.1)"/><path class="cls-4" d="M271.22,116.94a22.32,22.32,0,0,1-2.82-1.54,8.39,8.39,0,0,0-1.26-.65,2.58,2.58,0,0,0-1.45-.2l-.05-.06a2.11,2.11,0,0,1,1.6-.32,4.44,4.44,0,0,1,1.54.59,11.34,11.34,0,0,1,2.5,2.13Z" transform="translate(-264.26 -69.1)"/><path class="cls-4" d="M268.14,120.52l-1,0a6.76,6.76,0,0,0-.71,0,12.86,12.86,0,0,0-1.64.33l-.05,0a3,3,0,0,1,.7-.68,2,2,0,0,1,.91-.35,2.63,2.63,0,0,1,1.83.6Z" transform="translate(-264.26 -69.1)"/><path class="cls-4" d="M270.45,117.93c-1.06-.86-1.89-1.76-2.8-2.41a3.2,3.2,0,0,0-1.38-.66,3.57,3.57,0,0,0-1.71.25l-.05-.06a2.93,2.93,0,0,1,1.75-.78,3,3,0,0,1,1.83.64,9.33,9.33,0,0,1,2.43,3Z" transform="translate(-264.26 -69.1)"/><path class="cls-4" d="M282.65,116a21.24,21.24,0,0,1,1.09-3.94c.23-.62.43-1.23.64-1.84a5.07,5.07,0,0,0,.34-1.92l.07,0a3.4,3.4,0,0,1,.17,2,12.48,12.48,0,0,1-.51,2,26.9,26.9,0,0,1-1.74,3.73Z" transform="translate(-264.26 -69.1)"/><path class="cls-4" d="M282.14,116.29a19.14,19.14,0,0,1-.17-3.89c0-.62,0-1.24,0-1.83a4.87,4.87,0,0,0-.07-.87,1.38,1.38,0,0,0-.38-.8l0-.07a2.05,2.05,0,0,1,1,1.63,9.23,9.23,0,0,1,.13,2,25.41,25.41,0,0,1-.51,3.89Z" transform="translate(-264.26 -69.1)"/><path class="cls-4" d="M298.32,116.29c-.07-1.18-.11-2.34-.11-3.49s0-2.29-.08-3.42a23,23,0,0,0-.31-3.34,5,5,0,0,0-1.37-2.94l0-.07a4.45,4.45,0,0,1,1.9,2.86,16.13,16.13,0,0,1,.49,3.46,37.62,37.62,0,0,1-.49,7Z" transform="translate(-264.26 -69.1)"/><path class="cls-4" d="M307.41,115.48c0-.65,0-1.28,0-1.92s.06-1.26.07-1.89c0-1.25.1-2.49,0-3.72a16,16,0,0,0-.37-3.61,6.53,6.53,0,0,0-.6-1.67,4,4,0,0,0-1.15-1.41l0-.07a4.78,4.78,0,0,1,2.26,3,14.17,14.17,0,0,1,.57,3.77,34.25,34.25,0,0,1-.8,7.56Z" transform="translate(-264.26 -69.1)"/><path class="cls-4" d="M311.6,114.82c.11-2.4.38-4.71.44-7a19.09,19.09,0,0,0-.12-3.39,6.65,6.65,0,0,0-1.13-3.18l0,0a5.62,5.62,0,0,1,1.66,3.1,14,14,0,0,1,.29,3.54,31.26,31.26,0,0,1-1.12,7Z" transform="translate(-264.26 -69.1)"/><path class="cls-4" d="M313.41,118.16c.12-.78.29-1.53.41-2.3l.47-2.27c.31-1.51.68-3,.94-4.51s.58-3,.8-4.5l.12-1.12c0-.38,0-.75.05-1.13a10.65,10.65,0,0,0,0-1.13c0-.38-.15-.73-.21-1.13l.07,0a9.83,9.83,0,0,1,.57,4.59,39.64,39.64,0,0,1-.65,4.61,77.73,77.73,0,0,1-2.48,9Z" transform="translate(-264.26 -69.1)"/><path class="cls-4" d="M311.6,118.16c.08-.79.21-1.57.3-2.36l.36-2.34c.23-1.55.52-3.09.69-4.64a37.9,37.9,0,0,0,.49-4.62,12.5,12.5,0,0,0,0-2.29,4.37,4.37,0,0,0-.69-2.15l.05-.05a4.21,4.21,0,0,1,1,2.12,12.53,12.53,0,0,1,.25,2.36,32.42,32.42,0,0,1-.34,4.73,73.26,73.26,0,0,1-2,9.27Z" transform="translate(-264.26 -69.1)"/><path class="cls-4" d="M309.07,118.17c0-.8,0-1.59,0-2.38l.1-2.36c.06-1.57.19-3.13.22-4.69s.13-3.11.12-4.65a15.59,15.59,0,0,0-.17-2.28,3.17,3.17,0,0,0-.86-2l0-.07a3.17,3.17,0,0,1,1.2,2,14.08,14.08,0,0,1,.37,2.34,41.45,41.45,0,0,1,0,4.73c-.17,3.15-.53,6.28-1,9.4Z" transform="translate(-264.26 -69.1)"/><path class="cls-4" d="M320.6,118.47c0-.75,0-1.5,0-2.25l.05-2.22c0-1.48.15-3,.17-4.43s.11-2.93.12-4.39a15.62,15.62,0,0,0-.11-2.17,4.24,4.24,0,0,0-.59-2.05l0-.06a4.12,4.12,0,0,1,.93,2,16.67,16.67,0,0,1,.3,2.22,39.06,39.06,0,0,1,0,4.46c-.14,3-.44,5.94-.86,8.88Z" transform="translate(-264.26 -69.1)"/><path class="cls-4" d="M324.31,118.47c0-.8,0-1.6,0-2.39l.12-2.38c.08-1.57.24-3.14.28-4.71s.18-3.13.21-4.69a18,18,0,0,0-.08-2.32,5.36,5.36,0,0,0-.56-2.22l.05-.05a4.9,4.9,0,0,1,.9,2.2,17.05,17.05,0,0,1,.27,2.36,42,42,0,0,1,0,4.76c-.21,3.17-.61,6.32-1.12,9.45Z" transform="translate(-264.26 -69.1)"/><path class="cls-4" d="M301.86,116.91c-.05-2.34.14-4.6.25-6.85.07-1.12.1-2.24.08-3.34a12.5,12.5,0,0,0-.14-1.63,3.71,3.71,0,0,0-.55-1.55l.05-.06a5.25,5.25,0,0,1,1.23,3.17,22.09,22.09,0,0,1,.08,3.45,50.56,50.56,0,0,1-.92,6.82Z" transform="translate(-264.26 -69.1)"/><path class="cls-4" d="M305.61,116.3c-.47-2.49-.66-5-.91-7.4-.1-1.22-.24-2.43-.41-3.62a14.45,14.45,0,0,0-.37-1.76,2.89,2.89,0,0,0-.85-1.53l0-.07a2.75,2.75,0,0,1,1.18,1.44,10.89,10.89,0,0,1,.58,1.78,28.63,28.63,0,0,1,.59,3.69,69,69,0,0,1,.23,7.47Z" transform="translate(-264.26 -69.1)"/><path class="cls-4" d="M287.58,115.31c.24-.85.44-1.67.65-2.47a15.28,15.28,0,0,0,.42-2.35,6.36,6.36,0,0,0-1.06-4.51l.05-.06a5.41,5.41,0,0,1,1.47,2.09,6.3,6.3,0,0,1,.29,2.55,9.67,9.67,0,0,1-.62,2.49,14,14,0,0,1-1.13,2.3Z" transform="translate(-264.26 -69.1)"/><path class="cls-4" d="M292.27,116.29c0-.93.08-1.82.16-2.69s.13-1.74.14-2.59a16.26,16.26,0,0,0-.07-2.52,9.94,9.94,0,0,0-.61-2.52l.05,0a6.31,6.31,0,0,1,1.14,2.43,10.54,10.54,0,0,1,.24,2.68,19.39,19.39,0,0,1-1,5.28Z" transform="translate(-264.26 -69.1)"/></g><path class="cls-1" d="M448.28,167.93s50.86-97.13,93.66-29.32a39.68,39.68,0,0,1,.46,24.93,32.5,32.5,0,0,1-3.8,8.35s-10.68-26.2-29.88-27.66c-16.72-1.27-33.63-.61-52.08,15.45A96.26,96.26,0,0,0,448.28,167.93Z" transform="translate(-264.26 -69.1)"/><path class="cls-1" d="M490.65,176.07s44.6,9.88,40.76-19.62C537.32,169.9,541.62,189.19,490.65,176.07Z" transform="translate(-264.26 -69.1)"/><path class="cls-5" d="M452.91,110.53s16.87-3.24,23.44-9.22c6.18-2.32,10-5.73,12-6.71s10.88-4.5,10.88-4.5l10.86-4.23s7.73-2.36,11-2.54c3.26-.39,9-1,9-1l6.22-.28,5.9.2,4.94,1.08L551.36,85s4.57,5.11.56-5c-2.18-3.41-9.14-6-10.31-6.61s-6.75-2.89-9.21-3-8.9-.78-12.48-.3-15.24,1.57-16.9,2-5.2,1-11.62,5.22c-6.4,3.55-21.13,7.95-21.13,7.95l-3.17,1.24-14.83,1.84S448.49,89,452.91,110.53Z" transform="translate(-264.26 -69.1)"/><g class="cls-2"><path class="cls-4" d="M451.86,110.76c-.14-1-.22-1.91-.34-2.86l-.27-2.86c-.18-1.89-.29-3.79-.5-5.68s-.33-3.79-.54-5.67c-.08-1-.22-1.88-.36-2.82l-.21-1.41c-.11-.46-.2-.93-.28-1.41l.07,0a31.55,31.55,0,0,1,1.36,5.58c.32,1.88.53,3.79.7,5.69.32,3.82.45,7.64.44,11.47Z" transform="translate(-264.26 -69.1)"/><path class="cls-4" d="M453.83,110.76c-.17-1-.27-1.93-.41-2.9l-.3-2.9c-.19-1.93-.28-3.87-.45-5.8l-.3-5.8c0-1-.09-1.93-.15-2.89a13.65,13.65,0,0,0-.36-2.86l.07,0c.09.23.18.46.26.69l.17.71c.11.48.16,1,.25,1.44.13,1,.25,1.93.34,2.9.19,1.93.34,3.87.47,5.8q.33,5.82.49,11.65Z" transform="translate(-264.26 -69.1)"/><path class="cls-4" d="M452.85,110.56c-.15-.84-.22-1.69-.34-2.54l-.25-2.53-.42-5.06c-.06-1.69-.22-3.37-.31-5.06,0-.84-.1-1.69-.17-2.53s-.12-1.69-.14-2.55l.07,0a80.09,80.09,0,0,1,1.3,10.11c.22,3.39.33,6.79.33,10.18Z" transform="translate(-264.26 -69.1)"/><path class="cls-4" d="M454.92,110.56c-.16-1-.23-1.92-.35-2.87l-.23-2.88c-.14-1.92-.19-3.84-.32-5.75l-.16-5.75c0-1-.05-1.91-.09-2.87a13.39,13.39,0,0,0-.29-2.83l.06,0a10.62,10.62,0,0,1,.62,2.83c.11.95.21,1.91.28,2.87.15,1.92.25,3.84.33,5.76.14,3.84.2,7.69.22,11.53Z" transform="translate(-264.26 -69.1)"/><path class="cls-4" d="M457.63,109.7c-.09-1-.11-1.89-.18-2.83l-.1-2.8c-.07-1.87-.06-3.74-.16-5.6s-.11-3.72-.22-5.57a25,25,0,0,0-.31-2.74,5.08,5.08,0,0,0-.92-2.54l0-.06a4.78,4.78,0,0,1,1.26,2.5,23.64,23.64,0,0,1,.5,2.77c.23,1.87.34,3.74.4,5.62.08,3.75,0,7.5-.23,11.25Z" transform="translate(-264.26 -69.1)"/><path class="cls-4" d="M456.19,110.56c-.13-.93-.19-1.86-.3-2.8l-.22-2.79c-.15-1.85-.24-3.71-.44-5.55s-.32-3.69-.58-5.51a18.43,18.43,0,0,0-.54-2.68,4.48,4.48,0,0,0-1.24-2.36l0-.07a4.38,4.38,0,0,1,1.58,2.29,18.1,18.1,0,0,1,.74,2.71,47,47,0,0,1,.76,5.56c.28,3.73.35,7.47.28,11.21Z" transform="translate(-264.26 -69.1)"/><path class="cls-4" d="M457.23,110.56c-.15-.91-.23-1.83-.36-2.74l-.25-2.75-.4-5.47c-.07-1.83-.22-3.65-.33-5.47-.06-.91-.13-1.81-.26-2.71a12,12,0,0,0-.2-1.34,2.6,2.6,0,0,0-.5-1.21l0-.06a2.36,2.36,0,0,1,.69,1.19,10.61,10.61,0,0,1,.36,1.34c.19.9.33,1.81.44,2.72.24,1.82.38,3.66.51,5.49.21,3.67.31,7.34.33,11Z" transform="translate(-264.26 -69.1)"/><path class="cls-4" d="M458.79,110.1c0-1,0-1.93,0-2.9l.07-2.87c.05-1.92.18-3.83.21-5.74s.15-3.81.18-5.7a26.86,26.86,0,0,0-.07-2.84,5.38,5.38,0,0,0-.65-2.69l.05,0a2.86,2.86,0,0,1,.68,1.27,8.67,8.67,0,0,1,.31,1.41,25.08,25.08,0,0,1,.26,2.87c.08,1.92.05,3.85,0,5.76-.17,3.84-.5,7.67-.93,11.49Z" transform="translate(-264.26 -69.1)"/><path class="cls-4" d="M462.14,108.66c-.16-.91-.25-1.83-.38-2.74l-.28-2.74c-.18-1.82-.27-3.65-.44-5.46s-.23-3.64-.34-5.46c-.05-.91-.13-1.82-.24-2.71,0-.45-.1-.9-.18-1.34a2.24,2.24,0,0,0-.5-1.19l0-.07a2.11,2.11,0,0,1,.71,1.18c.13.44.24.89.33,1.34.18.9.32,1.81.43,2.72.22,1.82.38,3.65.51,5.48.23,3.66.36,7.32.42,11Z" transform="translate(-264.26 -69.1)"/><path class="cls-4" d="M461,109c-.21-.9-.35-1.8-.53-2.69l-.43-2.7c-.28-1.79-.46-3.6-.73-5.39s-.42-3.59-.63-5.39c-.09-.9-.21-1.79-.37-2.67q-.09-.67-.24-1.32a2.27,2.27,0,0,0-.54-1.16l0-.07a2.07,2.07,0,0,1,.74,1.14,12.33,12.33,0,0,1,.4,1.31c.22.88.4,1.78.56,2.67.31,1.8.56,3.6.79,5.4.42,3.61.75,7.24,1,10.86Z" transform="translate(-264.26 -69.1)"/><path class="cls-4" d="M459.76,109.47c-.21-.86-.34-1.73-.52-2.59l-.4-2.6c-.25-1.74-.4-3.48-.62-5.21s-.3-3.49-.39-5.23l-.15-2.62a18.74,18.74,0,0,0-.22-2.6l.07,0a14.26,14.26,0,0,1,.54,2.58c.12.86.24,1.73.34,2.6.2,1.74.39,3.48.56,5.22.32,3.49.6,7,.86,10.47Z" transform="translate(-264.26 -69.1)"/><path class="cls-4" d="M463.3,107.92c-.44-.82-.77-1.67-1.13-2.52s-.61-1.73-.9-2.6A44.23,44.23,0,0,1,460,97.42a25.7,25.7,0,0,1-.23-5.55,16.22,16.22,0,0,1,.48-2.77l.53-1.31c.24-.41.51-.8.77-1.17l.06,0a10.33,10.33,0,0,0-1.26,5.23,29.84,29.84,0,0,0,.39,5.42,62.89,62.89,0,0,0,2.61,10.58Z" transform="translate(-264.26 -69.1)"/><path class="cls-4" d="M464.39,107.5c-.19-.76-.31-1.53-.48-2.29l-.36-2.3c-.24-1.53-.38-3.06-.6-4.59s-.31-3.07-.45-4.6c-.06-.77-.14-1.53-.25-2.29a6.87,6.87,0,0,0-.47-2.22l.06,0a6.17,6.17,0,0,1,.8,2.18c.17.76.31,1.52.43,2.29.25,1.53.45,3.07.62,4.61.33,3.08.58,6.17.78,9.26Z" transform="translate(-264.26 -69.1)"/><path class="cls-4" d="M463.08,105.13c0-.77,0-1.52,0-2.27l.07-2.25c.05-1.5.19-3,.21-4.48s.17-3,.2-4.44a15.93,15.93,0,0,0-.07-2.19,4.53,4.53,0,0,0-.19-1,1.22,1.22,0,0,0-.59-.82v-.07a1.26,1.26,0,0,1,.81.78,5,5,0,0,1,.35,1.08,15.37,15.37,0,0,1,.26,2.24,42.41,42.41,0,0,1,0,4.51c-.18,3-.51,6-.93,9Z" transform="translate(-264.26 -69.1)"/><path class="cls-4" d="M465.9,106.52c-.09-.82-.1-1.63-.16-2.45l-.07-2.43c-.05-1.62,0-3.23-.08-4.84s0-3.22-.09-4.81a18.79,18.79,0,0,0-.2-2.38,5.2,5.2,0,0,0-.66-2.25l.05,0a4.79,4.79,0,0,1,1,2.21,21.6,21.6,0,0,1,.39,2.41c.17,1.61.24,3.24.26,4.86,0,3.25-.12,6.5-.37,9.73Z" transform="translate(-264.26 -69.1)"/><path class="cls-4" d="M467.23,106.13a19.31,19.31,0,0,1-2.14-5.67,20.22,20.22,0,0,1-.44-3,9.65,9.65,0,0,1,.22-3.07h.07a19.91,19.91,0,0,0,.29,3c.16,1,.36,2,.59,2.94.42,2,.92,3.89,1.48,5.8Z" transform="translate(-264.26 -69.1)"/><path class="cls-4" d="M468.36,105.47c-.13-.73-.19-1.47-.29-2.21l-.19-2.2c-.11-1.46-.14-2.93-.26-4.39s-.12-2.92-.18-4.37c0-.73-.08-1.45-.17-2.17a4.89,4.89,0,0,0-.5-2.07l.05,0a4.48,4.48,0,0,1,.84,2c.16.72.27,1.45.36,2.18.17,1.47.27,2.94.35,4.41.12,2.94.13,5.89.06,8.84Z" transform="translate(-264.26 -69.1)"/><path class="cls-4" d="M470,104.64c-.13-.74-.2-1.47-.31-2.2l-.2-2.18c-.13-1.46-.16-2.92-.28-4.37s-.12-2.9-.18-4.35c0-.72-.06-1.44-.14-2.16a3.86,3.86,0,0,0-.52-2l0-.07a1.76,1.76,0,0,1,.58.94,10,10,0,0,1,.29,1.07c.15.71.24,1.44.33,2.17.17,1.45.27,2.92.35,4.38.12,2.92.15,5.85.12,8.78Z" transform="translate(-264.26 -69.1)"/><path class="cls-4" d="M472,103.73c-.12-.72-.17-1.45-.26-2.17l-.16-2.15c-.09-1.44-.1-2.87-.2-4.3s-.08-2.86-.12-4.28c0-.71-.05-1.42-.13-2.12a5,5,0,0,0-.45-2l.06-.06a4.64,4.64,0,0,1,.78,2c.15.71.24,1.42.32,2.14.16,1.43.24,2.87.29,4.32.07,2.88,0,5.76-.06,8.64Z" transform="translate(-264.26 -69.1)"/><path class="cls-4" d="M475.33,101.66c-.09-.65-.11-1.3-.18-2l-.09-1.93c-.07-1.28-.06-2.56-.15-3.82s-.09-2.54-.19-3.79a11.19,11.19,0,0,0-.28-1.84,3.17,3.17,0,0,0-.76-1.66l0-.06a3,3,0,0,1,1.09,1.58,10.38,10.38,0,0,1,.48,1.88,29.48,29.48,0,0,1,.37,3.86,71.48,71.48,0,0,1-.25,7.74Z" transform="translate(-264.26 -69.1)"/><path class="cls-4" d="M473.66,102.83c-.17-.63-.28-1.25-.43-1.87l-.36-1.87c-.24-1.24-.41-2.48-.68-3.7s-.47-2.44-.75-3.64l-.24-.89c-.09-.29-.21-.57-.3-.87a9,9,0,0,0-.36-.85c-.13-.27-.32-.51-.49-.8l.05,0A7.67,7.67,0,0,1,472,91.57a30.68,30.68,0,0,1,.94,3.69,61.93,61.93,0,0,1,.81,7.56Z" transform="translate(-264.26 -69.1)"/><path class="cls-4" d="M471.08,104.08a39.43,39.43,0,0,1-.23-6.31l.11-3.11c0-.51,0-1,0-1.54a2.26,2.26,0,0,0-.3-1.42l0-.07a1.11,1.11,0,0,1,.46.65,4.6,4.6,0,0,1,.2.77,14.15,14.15,0,0,1,.18,1.58c.06,1.05.06,2.1,0,3.16q-.1,3.15-.44,6.29Z" transform="translate(-264.26 -69.1)"/><path class="cls-4" d="M467.22,103.1a43.52,43.52,0,0,1-.37-6.91c0-1.14,0-2.28.1-3.42,0-.57.05-1.14.05-1.7a3,3,0,0,0-.22-1.6l0-.07a1.24,1.24,0,0,1,.42.76,8.65,8.65,0,0,1,.16.86c.08.57.12,1.15.15,1.72.06,1.15.07,2.31.06,3.46,0,2.3-.15,4.61-.3,6.91Z" transform="translate(-264.26 -69.1)"/><path class="cls-4" d="M464.87,106.52c-.1-.79-.12-1.56-.19-2.34l-.08-2.33c0-1.55,0-3.09,0-4.64s.06-3.08.1-4.62c0-.77,0-1.54,0-2.3a5.51,5.51,0,0,0-.3-2.23l.06,0a2.43,2.43,0,0,1,.44,1.08,11.22,11.22,0,0,1,.19,1.16c.09.77.14,1.54.17,2.32.07,1.55.08,3.1.07,4.65-.05,3.11-.19,6.21-.39,9.3Z" transform="translate(-264.26 -69.1)"/><path class="cls-4" d="M474.62,101.92c-.48-2.32-.68-4.6-.94-6.87-.1-1.14-.25-2.26-.39-3.39a14.86,14.86,0,0,0-.74-3.32l.06,0a9.8,9.8,0,0,1,1.26,3.24,30.81,30.81,0,0,1,.56,3.44,59.73,59.73,0,0,1,.26,7Z" transform="translate(-264.26 -69.1)"/><path class="cls-4" d="M476.87,101.29c-.1-.64-.12-1.27-.19-1.91l-.09-1.89c0-1.25,0-2.51-.07-3.76s0-2.49,0-3.73c0-.62,0-1.24-.08-1.85a3.8,3.8,0,0,0-.41-1.76l0-.06a3.66,3.66,0,0,1,.75,1.74,17,17,0,0,1,.27,1.88c.11,1.26.15,2.52.16,3.78,0,2.53-.13,5-.33,7.56Z" transform="translate(-264.26 -69.1)"/><path class="cls-4" d="M479.59,100.25a59.41,59.41,0,0,1-.48-7.12c0-1.17-.06-2.34-.11-3.5,0-.58-.07-1.16-.16-1.72a2.2,2.2,0,0,0-.62-1.51l0-.07c.6.26.79.92,1,1.46a12,12,0,0,1,.36,1.76,32.63,32.63,0,0,1,.28,3.56c0,2.38,0,4.77-.2,7.14Z" transform="translate(-264.26 -69.1)"/><path class="cls-4" d="M478.2,100.24a44.08,44.08,0,0,1-.36-5.56c0-.91,0-1.82-.06-2.72a26.23,26.23,0,0,0-.21-2.76l.07,0a10.18,10.18,0,0,1,.72,2.7,20.2,20.2,0,0,1,.23,2.8,41.58,41.58,0,0,1-.32,5.58Z" transform="translate(-264.26 -69.1)"/><path class="cls-4" d="M477.22,87.31a6.42,6.42,0,0,1,2.4,2.26,11.9,11.9,0,0,1,1.39,3,16,16,0,0,1,.62,3.2,12.64,12.64,0,0,1-.08,3.25h-.08a28.18,28.18,0,0,0-1.18-6.24,15.34,15.34,0,0,0-1.19-2.94,8.55,8.55,0,0,0-1.93-2.5Z" transform="translate(-264.26 -69.1)"/><path class="cls-4" d="M482.86,97.87c-.18-.64-.28-1.29-.44-1.93L482.07,94c-.24-1.28-.39-2.56-.66-3.82s-.43-2.54-.7-3.78a16,16,0,0,0-.52-1.83,5.57,5.57,0,0,0-.86-1.7l.05-.06a7.51,7.51,0,0,1,1.88,3.41,31.72,31.72,0,0,1,.89,3.83,68.39,68.39,0,0,1,.78,7.81Z" transform="translate(-264.26 -69.1)"/><path class="cls-4" d="M481.85,94.72c-.34-.88-.65-1.74-.91-2.61l-.77-2.57c-.24-.85-.52-1.69-.82-2.51a12.27,12.27,0,0,0-1.14-2.41l.05-.06a7.22,7.22,0,0,1,1.62,2.21,15.66,15.66,0,0,1,1,2.56,31.76,31.76,0,0,1,1,5.38Z" transform="translate(-264.26 -69.1)"/><path class="cls-4" d="M485.05,96.27c-.13-.69-.19-1.38-.3-2.06l-.22-2c-.15-1.35-.23-2.71-.43-4a34.66,34.66,0,0,0-.56-4,9.38,9.38,0,0,0-.53-1.9,2.89,2.89,0,0,0-1.13-1.54l0-.07a2.9,2.9,0,0,1,1.46,1.43A9.39,9.39,0,0,1,484.1,84a26.47,26.47,0,0,1,.74,4.05,64.56,64.56,0,0,1,.28,8.23Z" transform="translate(-264.26 -69.1)"/><path class="cls-4" d="M483.46,96.75c-.11-.64-.15-1.28-.24-1.92l-.17-1.91c-.1-1.26-.14-2.53-.28-3.78s-.2-2.51-.37-3.73a9.59,9.59,0,0,0-.38-1.8,2.87,2.87,0,0,0-.91-1.54l0-.07a2.84,2.84,0,0,1,1.24,1.45,8.89,8.89,0,0,1,.59,1.83,25.76,25.76,0,0,1,.54,3.8,61.5,61.5,0,0,1,0,7.68Z" transform="translate(-264.26 -69.1)"/><path class="cls-4" d="M487.33,94.72c-.14-.66-.22-1.32-.34-2l-.27-2c-.18-1.3-.31-2.6-.54-3.88a37.12,37.12,0,0,0-.64-3.82,15.08,15.08,0,0,0-.48-1.87l-.31-.92c-.15-.28-.29-.58-.42-.89l.05,0a9.89,9.89,0,0,1,1.72,3.56,28.5,28.5,0,0,1,.83,3.88,56.7,56.7,0,0,1,.47,7.92Z" transform="translate(-264.26 -69.1)"/><path class="cls-4" d="M489.86,93.31c-.18-.65-.28-1.31-.43-2l-.33-2c-.22-1.3-.36-2.6-.58-3.89s-.35-2.58-.56-3.86a13.08,13.08,0,0,0-.4-1.88,2.87,2.87,0,0,0-.85-1.64l0-.07a2.77,2.77,0,0,1,1.19,1.56,14.29,14.29,0,0,1,.6,1.89c.32,1.29.54,2.59.73,3.9.34,2.62.55,5.25.67,7.88Z" transform="translate(-264.26 -69.1)"/><path class="cls-4" d="M493,91.66c-.12-1.27-.21-2.51-.26-3.75s-.11-2.47-.22-3.68a26.28,26.28,0,0,0-.44-3.59,7.86,7.86,0,0,0-.54-1.66,2.59,2.59,0,0,0-1.16-1.29l0-.07a2.65,2.65,0,0,1,1.47,1.14,6.28,6.28,0,0,1,.77,1.71,17.26,17.26,0,0,1,.63,3.7,44.74,44.74,0,0,1-.2,7.5Z" transform="translate(-264.26 -69.1)"/><path class="cls-4" d="M480.55,99c-.23-.72-.4-1.45-.61-2.17l-.52-2.18c-.36-1.44-.64-2.9-1-4.32s-.7-2.87-1.09-4.28L477,85l-.39-1c-.11-.35-.29-.66-.43-1s-.38-.61-.57-1l.05-.06a10.89,10.89,0,0,1,2.2,3.89,40.75,40.75,0,0,1,1.28,4.3,80.37,80.37,0,0,1,1.5,8.84Z" transform="translate(-264.26 -69.1)"/><path class="cls-4" d="M472.93,102.82c0-.87.05-1.72.06-2.58l.12-2.56c.08-1.7.22-3.39.23-5.08a49.89,49.89,0,0,0,0-5,13.44,13.44,0,0,0-.28-2.47,3.87,3.87,0,0,0-1-2.2l0-.07A3.88,3.88,0,0,1,473.48,85,14.48,14.48,0,0,1,474,87.5a38.18,38.18,0,0,1,.13,5.13,89.52,89.52,0,0,1-1.08,10.2Z" transform="translate(-264.26 -69.1)"/><path class="cls-4" d="M469.21,104.31c0-.85,0-1.68,0-2.51l.06-2.5.21-5c.14-1.65.18-3.29.25-4.94,0-.82,0-1.64,0-2.45a4.39,4.39,0,0,0-.48-2.33l0-.06a2.29,2.29,0,0,1,.58,1.11,8.62,8.62,0,0,1,.24,1.23c.11.83.16,1.66.19,2.49,0,1.66,0,3.33-.08,5-.19,3.32-.51,6.63-.91,9.94Z" transform="translate(-264.26 -69.1)"/><path class="cls-4" d="M467.5,104.63c-.05-.81,0-1.61-.07-2.42v-2.4c0-1.6.1-3.19.09-4.78s.07-3.18.06-4.75a20.31,20.31,0,0,0-.15-2.35,4.18,4.18,0,0,0-.67-2.19l.05-.06a4.16,4.16,0,0,1,1,2.17,18.94,18.94,0,0,1,.34,2.38c.12,1.6.14,3.21.11,4.82-.09,3.2-.35,6.4-.71,9.59Z" transform="translate(-264.26 -69.1)"/><path class="cls-4" d="M476,101.3c-.27-.74-.47-1.48-.72-2.21l-.62-2.22c-.41-1.47-.74-3-1.16-4.43s-.74-3-1.14-4.41a21.67,21.67,0,0,0-.67-2.16,5.15,5.15,0,0,0-1-2l0-.07a4.7,4.7,0,0,1,1.35,1.86,18.09,18.09,0,0,1,.87,2.14c.51,1.45.93,2.93,1.31,4.42.74,3,1.34,6,1.86,9Z" transform="translate(-264.26 -69.1)"/><path class="cls-4" d="M478,100.91c-.33-.71-.56-1.44-.85-2.16l-.69-2.2c-.44-1.48-.77-3-1.14-4.48s-.58-3-.73-4.56a16.17,16.17,0,0,1,0-4.66h.07a25,25,0,0,0,.5,4.55c.27,1.51.58,3,.9,4.51q.93,4.5,2,9Z" transform="translate(-264.26 -69.1)"/><path class="cls-4" d="M485.82,95.12c-.28-.59-.5-1.2-.77-1.79l-.69-1.81c-.45-1.21-.83-2.43-1.31-3.61s-.85-2.4-1.33-3.57a14.6,14.6,0,0,0-.79-1.7,4.29,4.29,0,0,0-1.14-1.47l0-.07a3.91,3.91,0,0,1,1.43,1.31,12.23,12.23,0,0,1,1,1.67,31.1,31.1,0,0,1,1.52,3.57,74.62,74.62,0,0,1,2.14,7.46Z" transform="translate(-264.26 -69.1)"/><path class="cls-4" d="M488.69,93.83c-.28-.58-.49-1.17-.75-1.75l-.64-1.78c-.43-1.19-.77-2.39-1.18-3.57s-.73-2.39-1.09-3.57c-.18-.6-.38-1.19-.61-1.75a3,3,0,0,0-.93-1.51v-.07a1.38,1.38,0,0,1,.75.59,6.09,6.09,0,0,1,.52.8,16.84,16.84,0,0,1,.8,1.72c.48,1.17.88,2.36,1.26,3.57.74,2.41,1.37,4.85,1.94,7.31Z" transform="translate(-264.26 -69.1)"/><path class="cls-4" d="M486.42,95.56c0-.71,0-1.41,0-2.12l.07-2.1c0-1.39.17-2.78.18-4.16s.13-2.76.13-4.13a12.56,12.56,0,0,0-.11-2,4,4,0,0,0-.59-1.92l.05,0a3.8,3.8,0,0,1,.93,1.88,13.2,13.2,0,0,1,.3,2.08,32.88,32.88,0,0,1,0,4.21,83.64,83.64,0,0,1-.91,8.37Z" transform="translate(-264.26 -69.1)"/><path class="cls-4" d="M491.43,92.84c-.16-.65-.25-1.3-.39-2L490.75,89l-.49-3.87c-.09-1.29-.28-2.57-.44-3.84a16.41,16.41,0,0,0-.34-1.88,2.9,2.9,0,0,0-.76-1.67l0-.07a2.78,2.78,0,0,1,1.1,1.6,15.79,15.79,0,0,1,.54,1.9c.28,1.28.46,2.58.62,3.88.28,2.6.43,5.22.5,7.84Z" transform="translate(-264.26 -69.1)"/><path class="cls-4" d="M492.57,92.58a46.1,46.1,0,0,1-.44-6.37c0-1,0-2.09-.06-3.13,0-.51,0-1-.11-1.53a2.11,2.11,0,0,0-.51-1.38l0-.07a2.06,2.06,0,0,1,.86,1.33,12.28,12.28,0,0,1,.32,1.58,30.88,30.88,0,0,1,.22,3.19c0,2.13-.07,4.26-.24,6.39Z" transform="translate(-264.26 -69.1)"/><path class="cls-4" d="M495.13,91.08c-.16-.64-.24-1.27-.37-1.9l-.28-1.89c-.18-1.25-.27-2.51-.46-3.76s-.26-2.5-.41-3.74a16,16,0,0,0-.29-1.84,7.08,7.08,0,0,0-.53-1.79l0,0a9.34,9.34,0,0,1,1.34,3.56c.27,1.25.43,2.52.59,3.78.25,2.54.39,5.08.44,7.63Z" transform="translate(-264.26 -69.1)"/><path class="cls-4" d="M496.74,91.66c-.09-.73-.11-1.46-.19-2.19l-.11-2.18c-.07-1.45-.06-2.89-.16-4.33s-.1-2.87-.21-4.3a18.42,18.42,0,0,0-.26-2.11,5.32,5.32,0,0,0-.67-2l.05,0a4.92,4.92,0,0,1,1,1.94,17.34,17.34,0,0,1,.46,2.14,39.69,39.69,0,0,1,.38,4.35c.08,2.92,0,5.83-.21,8.74Z" transform="translate(-264.26 -69.1)"/><path class="cls-4" d="M500.83,89.64c0-.78.15-1.54.21-2.31l.3-2.29c.2-1.53.47-3,.65-4.55s.44-3,.6-4.51a14.19,14.19,0,0,0,.11-2.25,4.83,4.83,0,0,0-.11-1.08,1.34,1.34,0,0,0-.55-.89l0-.07a1.35,1.35,0,0,1,.76.86,5,5,0,0,1,.27,1.13,12.86,12.86,0,0,1,.08,2.32,41.62,41.62,0,0,1-.44,4.6c-.47,3.05-1.1,6.07-1.83,9.06Z" transform="translate(-264.26 -69.1)"/><path class="cls-4" d="M503.1,87.75c-.2-.64-.33-1.28-.5-1.91l-.37-1.92c-.24-1.28-.37-2.57-.58-3.85s-.28-2.57-.37-3.86c0-.65-.1-1.29-.16-1.93a6.43,6.43,0,0,0-.28-1.88l.05-.06a5.24,5.24,0,0,1,.62,1.86c.13.64.24,1.28.34,1.92.21,1.28.38,2.57.55,3.86q.44,3.87.77,7.76Z" transform="translate(-264.26 -69.1)"/><path class="cls-4" d="M498.25,89.2a29.29,29.29,0,0,1-2.71-6.29,31.05,31.05,0,0,1-.85-3.32,13.24,13.24,0,0,1-.31-3.45h.07a26.92,26.92,0,0,0,.81,3.3c.31,1.09.65,2.17,1,3.25.67,2.17,1.36,4.34,2.07,6.49Z" transform="translate(-264.26 -69.1)"/><path class="cls-4" d="M498.32,74.52l.58,3.77.53,3.74c.1,1.26.29,2.52.37,3.78l.12,1.91c0,.64.05,1.27,0,1.93h-.07c-.45-2.5-.85-5-1.17-7.53-.15-1.27-.29-2.53-.38-3.8a30.28,30.28,0,0,1-.06-3.81Z" transform="translate(-264.26 -69.1)"/><path class="cls-4" d="M502,89.39c-.1-.64-.14-1.28-.23-1.92l-.16-1.91c-.1-1.26-.13-2.53-.27-3.78s-.18-2.5-.33-3.73a12.19,12.19,0,0,0-.35-1.82,4.31,4.31,0,0,0-.75-1.68l.05-.06a6.33,6.33,0,0,1,1.61,3.44,26.92,26.92,0,0,1,.52,3.8,65.42,65.42,0,0,1,0,7.67Z" transform="translate(-264.26 -69.1)"/><path class="cls-6" d="M500.87,86.36" transform="translate(-264.26 -69.1)"/><path class="cls-4" d="M500.3,87.05a45.28,45.28,0,0,1-.56-6l-.16-2.92a8.86,8.86,0,0,0-.53-2.83l.05-.06a6.28,6.28,0,0,1,1.07,2.79,27.37,27.37,0,0,1,.31,3,54.39,54.39,0,0,1-.1,6Z" transform="translate(-264.26 -69.1)"/><path class="cls-4" d="M505.68,87c0-.7.05-1.39.06-2.08s.09-1.38.12-2.06c.07-1.37.2-2.73.21-4.09a34.06,34.06,0,0,0,0-4,10.72,10.72,0,0,0-.25-2,4.55,4.55,0,0,0-.73-1.85l.05-.06a6.61,6.61,0,0,1,1.51,3.81,26,26,0,0,1,.13,4.14,56.71,56.71,0,0,1-1.07,8.22Z" transform="translate(-264.26 -69.1)"/><path class="cls-4" d="M504.27,87.74a33.83,33.83,0,0,1-.62-7.29c0-1.22.08-2.44.23-3.66a15.27,15.27,0,0,1,.76-3.62l.08,0a29.09,29.09,0,0,0-.25,3.62c0,1.22-.06,2.43-.07,3.65q-.06,3.63-.06,7.28Z" transform="translate(-264.26 -69.1)"/><path class="cls-4" d="M508.32,85.25c-.23-.61-.36-1.23-.53-1.85l-.37-1.87c-.21-1.25-.3-2.52-.42-3.79a32.7,32.7,0,0,1,.09-3.83,16.1,16.1,0,0,1,.34-1.92,3.68,3.68,0,0,1,.9-1.75l.05,0a4,4,0,0,0-.56,1.77,14.73,14.73,0,0,0-.14,1.88c0,1.26,0,2.52.07,3.77.12,2.52.34,5,.64,7.54Z" transform="translate(-264.26 -69.1)"/><path class="cls-4" d="M509.92,85.24c-.16-2-.08-3.93-.09-5.83,0-1,0-1.89-.08-2.82a6.73,6.73,0,0,0-.67-2.72l.05-.06a5.21,5.21,0,0,1,1.2,2.67,17,17,0,0,1,.25,2.93,33.62,33.62,0,0,1-.59,5.84Z" transform="translate(-264.26 -69.1)"/><path class="cls-4" d="M512.18,84.67a17.39,17.39,0,0,1-1-1.63c-.3-.57-.59-1.15-.86-1.73A23.25,23.25,0,0,1,509,77.62a11.53,11.53,0,0,1-.24-4,4.18,4.18,0,0,1,.83-1.94,2.37,2.37,0,0,1,1.86-.81V71a2.31,2.31,0,0,0-1.55,1,3.7,3.7,0,0,0-.57,1.77,12.26,12.26,0,0,0,.39,3.76,38.06,38.06,0,0,0,2.51,7.19Z" transform="translate(-264.26 -69.1)"/><path class="cls-4" d="M513.59,85.24c-.1-.66-.12-1.31-.2-2l-.1-2c-.06-1.31,0-2.61-.09-3.9s0-2.59,0-3.88a17.51,17.51,0,0,0-.1-1.92,6.81,6.81,0,0,0-.32-1.89l.06,0a10.27,10.27,0,0,1,.94,3.81c.13,1.3.17,2.61.2,3.92,0,2.62-.1,5.24-.28,7.85Z" transform="translate(-264.26 -69.1)"/><path class="cls-4" d="M512.74,82.67a17.92,17.92,0,0,1-1.53-5A20.42,20.42,0,0,1,511,75a7.83,7.83,0,0,1,.29-2.66h.07a15.94,15.94,0,0,0,.23,2.57c.12.86.26,1.72.4,2.57.27,1.72.57,3.43.88,5.13Z" transform="translate(-264.26 -69.1)"/><path class="cls-4" d="M515.66,84.65c-.06-.66,0-1.32-.09-2l0-2c0-1.31.12-2.6.14-3.91s.16-2.59.23-3.87c0-.65.06-1.29,0-1.93a3.43,3.43,0,0,0-.33-1.83l0-.06a1.61,1.61,0,0,1,.48.87,6.42,6.42,0,0,1,.2,1,18.45,18.45,0,0,1,.14,2c0,1.31,0,2.63-.06,3.94-.16,2.61-.42,5.22-.74,7.82Z" transform="translate(-264.26 -69.1)"/><path class="cls-4" d="M514.63,85.24c-.06-.65,0-1.28-.09-1.93l0-1.9c0-1.27.13-2.53.16-3.79s.17-2.51.25-3.76c0-.62.07-1.25.06-1.86s0-1.3-.38-1.7l0-.08a1.16,1.16,0,0,1,.55.78,6.26,6.26,0,0,1,.19.94,15.32,15.32,0,0,1,.13,1.91c0,1.27,0,2.54-.09,3.81-.16,2.54-.43,5.07-.76,7.59Z" transform="translate(-264.26 -69.1)"/><path class="cls-4" d="M518,83.92a32.84,32.84,0,0,1-.91-10.72,15.85,15.85,0,0,1,.24-1.8c.06-.3.14-.6.23-.9a1.61,1.61,0,0,1,.45-.84l.05.07a3.9,3.9,0,0,0-.34,1.69c0,.6,0,1.19,0,1.79,0,1.19,0,2.38.07,3.57q.11,3.57.32,7.14Z" transform="translate(-264.26 -69.1)"/><path class="cls-4" d="M519.43,83.44a63.36,63.36,0,0,1,.41-6.67c.11-1.1.22-2.19.29-3.27,0-.54.06-1.08,0-1.62a4.69,4.69,0,0,0-.25-1.6l.06,0a6.43,6.43,0,0,1,.75,3.25,31.27,31.27,0,0,1-.13,3.35,64.73,64.73,0,0,1-1.08,6.62Z" transform="translate(-264.26 -69.1)"/><path class="cls-4" d="M516.89,83.91a22,22,0,0,1,.06-6.12,24,24,0,0,1,.62-3,7.88,7.88,0,0,1,1.3-2.84l.07,0a12.39,12.39,0,0,0-.79,2.91c-.18,1-.32,2-.45,3-.29,2-.53,4-.74,6Z" transform="translate(-264.26 -69.1)"/><path class="cls-4" d="M521.32,82.65a34.32,34.32,0,0,1,.34-6.27c.15-1,.29-2,.47-3.06l.25-1.53a4.06,4.06,0,0,0,.07-1.51l.06,0a3.2,3.2,0,0,1,.26,1.55c0,.52,0,1,0,1.57-.07,1-.19,2.08-.31,3.12-.29,2.07-.64,4.13-1,6.19Z" transform="translate(-264.26 -69.1)"/><path class="cls-4" d="M523.29,82.65a38.19,38.19,0,0,1,.58-6.28l.52-3.06c.08-.51.18-1,.24-1.52a3.3,3.3,0,0,0,0-1.5l.06-.05a2.86,2.86,0,0,1,.34,1.54c0,.52,0,1,0,1.57-.08,1.05-.22,2.1-.37,3.14-.35,2.07-.77,4.13-1.24,6.18Z" transform="translate(-264.26 -69.1)"/><path class="cls-4" d="M525.84,82.65a39.44,39.44,0,0,1,.7-6.29l.58-3.06c.09-.51.19-1,.26-1.52a2.89,2.89,0,0,0,0-1.49l.06-.06a2.69,2.69,0,0,1,.37,1.54c0,.53,0,1.06-.07,1.59-.1,1-.25,2.09-.43,3.13-.38,2.08-.85,4.13-1.37,6.18Z" transform="translate(-264.26 -69.1)"/><path class="cls-4" d="M528.38,82.65a44.44,44.44,0,0,1,.78-6.59l.61-3.22c.09-.53.2-1.07.26-1.6a2.21,2.21,0,0,0-.12-1.51l0-.07a1.06,1.06,0,0,1,.4.74,4.68,4.68,0,0,1,.09.83,15.55,15.55,0,0,1-.07,1.67c-.1,1.1-.27,2.2-.46,3.29-.4,2.17-.9,4.33-1.45,6.48Z" transform="translate(-264.26 -69.1)"/><path class="cls-4" d="M524.12,82.67a17.56,17.56,0,0,1-1.19-6.84,11.85,11.85,0,0,1,.59-3.51,5.47,5.47,0,0,1,.85-1.62,3,3,0,0,1,1.49-1l0,.07a4.11,4.11,0,0,0-1.8,2.74,15.32,15.32,0,0,0-.41,3.38,36.89,36.89,0,0,0,.51,6.8Z" transform="translate(-264.26 -69.1)"/><path class="cls-4" d="M524.71,81.35c.43-.9.85-1.77,1.31-2.61s.88-1.67,1.28-2.52a18,18,0,0,0,1.07-2.54,6.93,6.93,0,0,0,.39-2.75l.07,0a5.26,5.26,0,0,1,.11,2.89,11.5,11.5,0,0,1-1,2.75,25.34,25.34,0,0,1-3.21,4.85Z" transform="translate(-264.26 -69.1)"/><path class="cls-4" d="M530.35,82.3a43.58,43.58,0,0,1,1.16-5.83c.24-.94.46-1.89.66-2.82a11.51,11.51,0,0,0,.2-1.4,1.68,1.68,0,0,0-.3-1.3l0-.06a1.65,1.65,0,0,1,.65,1.32,7.52,7.52,0,0,1,0,1.5,22.65,22.65,0,0,1-.53,2.94,53.56,53.56,0,0,1-1.81,5.68Z" transform="translate(-264.26 -69.1)"/><path class="cls-4" d="M533.19,81.36a27.3,27.3,0,0,1,.92-4.81c.21-.77.4-1.54.58-2.3a9.12,9.12,0,0,0,.21-1.14,1.92,1.92,0,0,0-.1-1.13l.05,0a1.88,1.88,0,0,1,.45,1.15,6.32,6.32,0,0,1,0,1.23,16.38,16.38,0,0,1-.45,2.42,39.86,39.86,0,0,1-1.57,4.66Z" transform="translate(-264.26 -69.1)"/><path class="cls-4" d="M531.53,81.85a10.55,10.55,0,0,1-1-4.42,8.31,8.31,0,0,1,1-4.45l.07,0a18.14,18.14,0,0,0-.31,4.41,41,41,0,0,0,.31,4.43Z" transform="translate(-264.26 -69.1)"/><path class="cls-4" d="M532.71,80.14a23.06,23.06,0,0,1,.46-4.75l.42-2.28a11,11,0,0,0,.16-1.11,1.32,1.32,0,0,0-.17-1l0-.06a1.33,1.33,0,0,1,.54,1.06,6.76,6.76,0,0,1,0,1.19,21.16,21.16,0,0,1-.28,2.38,46.08,46.08,0,0,1-1.12,4.64Z" transform="translate(-264.26 -69.1)"/><path class="cls-4" d="M535.24,81.83a23,23,0,0,1,1.06-4.08c.22-.64.42-1.28.62-1.91a5.64,5.64,0,0,0,.32-2l.06,0a3.6,3.6,0,0,1,.2,2.1A13.26,13.26,0,0,1,537,78a27.25,27.25,0,0,1-1.71,3.87Z" transform="translate(-264.26 -69.1)"/><path class="cls-4" d="M537.48,81.83a19,19,0,0,1,1.08-3.92c.24-.61.47-1.22.67-1.81a5.11,5.11,0,0,0,.23-.87.73.73,0,0,0-.22-.79l0-.07a.87.87,0,0,1,.59.8,3.23,3.23,0,0,1,0,1,11.94,11.94,0,0,1-.54,2,32.58,32.58,0,0,1-1.72,3.69Z" transform="translate(-264.26 -69.1)"/><path class="cls-4" d="M540.16,81.83a22.62,22.62,0,0,1,1-3.47,14.5,14.5,0,0,0,.48-1.6,3.33,3.33,0,0,0,.06-1.67l.06,0a2.55,2.55,0,0,1,.47,1.75,6.85,6.85,0,0,1-.36,1.8,15.4,15.4,0,0,1-1.62,3.28Z" transform="translate(-264.26 -69.1)"/><path class="cls-4" d="M538.64,81.82a10.28,10.28,0,0,1,1.19-3l.77-1.3a6.74,6.74,0,0,0,.35-.64,1.13,1.13,0,0,0,.19-.71l.06,0a2,2,0,0,1-.05,1.6,10.22,10.22,0,0,1-.67,1.47,24.9,24.9,0,0,1-1.78,2.68Z" transform="translate(-264.26 -69.1)"/><path class="cls-4" d="M534.11,81.36a24.2,24.2,0,0,1,1.12-4.82l.77-2.28c.12-.38.26-.76.36-1.13a2.17,2.17,0,0,0,.11-1.15l.06,0a1.93,1.93,0,0,1,.22,1.22,8.46,8.46,0,0,1-.17,1.23c-.17.81-.39,1.6-.64,2.39-.52,1.57-1.12,3.1-1.76,4.62Z" transform="translate(-264.26 -69.1)"/><path class="cls-4" d="M541.55,82.3a12.28,12.28,0,0,1,1.13-3.21l.73-1.43c.11-.24.23-.47.32-.71a1.54,1.54,0,0,0,.16-.78l.07,0a2.35,2.35,0,0,1,0,1.69,9.89,9.89,0,0,1-.62,1.59,25.47,25.47,0,0,1-1.75,2.93Z" transform="translate(-264.26 -69.1)"/><path class="cls-4" d="M543.33,82.65a10.79,10.79,0,0,1,1.15-2.92l.7-1.29a4.69,4.69,0,0,0,.56-1.37l.07,0a2.63,2.63,0,0,1-.07,1.57,8.55,8.55,0,0,1-.6,1.47,19.17,19.17,0,0,1-1.75,2.61Z" transform="translate(-264.26 -69.1)"/><path class="cls-4" d="M544.57,83a4,4,0,0,1,.59-2.69,3.89,3.89,0,0,1,1-1,1.61,1.61,0,0,1,1.48-.31V79a1.88,1.88,0,0,0-1.07.65,6,6,0,0,0-.76,1A14,14,0,0,0,544.64,83Z" transform="translate(-264.26 -69.1)"/><path class="cls-4" d="M545.83,83.29a4,4,0,0,1,.94-2.75,3.4,3.4,0,0,1,1.21-1,1.66,1.66,0,0,1,1.59,0v.08a1.92,1.92,0,0,0-1.25.41,5.4,5.4,0,0,0-1,1,11.79,11.79,0,0,0-1.45,2.31Z" transform="translate(-264.26 -69.1)"/><path class="cls-4" d="M547,84a2.21,2.21,0,0,1-.25-1.32,2.49,2.49,0,0,1,.49-1.31,2.1,2.1,0,0,1,1.29-.8,1.64,1.64,0,0,1,1.35.38v.08a2.31,2.31,0,0,0-1.14.1,1.9,1.9,0,0,0-.89.69,4.34,4.34,0,0,0-.77,2.18Z" transform="translate(-264.26 -69.1)"/><path class="cls-4" d="M550.51,82.35c-.19.05-.32.05-.4.15a.43.43,0,0,0-.12.2,3.14,3.14,0,0,1-.27.47,5.23,5.23,0,0,1-.46.57,2.94,2.94,0,0,1-.75.57l-.07,0a6.33,6.33,0,0,1,.66-1.54,1.76,1.76,0,0,1,.63-.58.78.78,0,0,1,.83.12Z" transform="translate(-264.26 -69.1)"/><path class="cls-4" d="M549.47,84.78a1.37,1.37,0,0,1,.18-1.43,1.47,1.47,0,0,1,.66-.44,1.16,1.16,0,0,1,.53,0c.19.07.36.21.36.39l-.05.06a.43.43,0,0,0-.51.06,2.09,2.09,0,0,0-.41.43,6.25,6.25,0,0,0-.69,1Z" transform="translate(-264.26 -69.1)"/><path class="cls-4" d="M536.36,81.35a27,27,0,0,1,1.16-3.81c.23-.6.42-1.2.6-1.79a6,6,0,0,0,.3-1.89l.07,0a3.7,3.7,0,0,1,.21,2,8.86,8.86,0,0,1-.48,2,20.56,20.56,0,0,1-1.79,3.61Z" transform="translate(-264.26 -69.1)"/></g><g class="cls-2"><path class="cls-4" d="M476.43,141.1a38.7,38.7,0,0,0,8.33-3.62,24,24,0,0,0,6.92-5.83,13.37,13.37,0,0,0,2.95-8.42,18.84,18.84,0,0,0-2.55-8.71,18.82,18.82,0,0,1,2.74,8.7,13.63,13.63,0,0,1-2.84,8.65,24.35,24.35,0,0,1-6.93,6.09,39.06,39.06,0,0,1-8.41,3.86Z" transform="translate(-264.26 -69.1)"/></g><g class="cls-2"><path class="cls-4" d="M489.5,141.7a148.93,148.93,0,0,0,9.17-13.36,61.14,61.14,0,0,0,3.74-7.18,21,21,0,0,0,1.23-3.85,8,8,0,0,0,.15-2,3.35,3.35,0,0,0-.73-1.85,3.35,3.35,0,0,1,.78,1.84,8.6,8.6,0,0,1-.11,2,20.41,20.41,0,0,1-1.15,3.91,61,61,0,0,1-3.59,7.3,146.69,146.69,0,0,1-8.9,13.62Z" transform="translate(-264.26 -69.1)"/></g><g class="cls-2"><path class="cls-4" d="M495.94,138.23a73.5,73.5,0,0,0,5.94-8.5,35.31,35.31,0,0,0,2.35-4.63,12,12,0,0,0,1.13-5,12.31,12.31,0,0,1-.95,5.11,37.07,37.07,0,0,1-2.2,4.74,74,74,0,0,1-5.68,8.79Z" transform="translate(-264.26 -69.1)"/></g><g class="cls-2"><path class="cls-4" d="M501.62,139.71c2.5-3.66,4.91-7.41,7.15-11.25,1.12-1.92,2.2-3.87,3.14-5.87a26.68,26.68,0,0,0,1.26-3.09,8.24,8.24,0,0,0,.36-1.62,1.55,1.55,0,0,0-.45-1.51,1.58,1.58,0,0,1,.5,1.52,8.49,8.49,0,0,1-.32,1.64,28.67,28.67,0,0,1-1.17,3.13c-.9,2-1.93,4-3,6-2.14,3.91-4.45,7.72-6.86,11.48Z" transform="translate(-264.26 -69.1)"/></g><g class="cls-2"><path class="cls-4" d="M502.9,141.2a89.37,89.37,0,0,0,6.18-6.58,39.41,39.41,0,0,0,2.7-3.61,13.55,13.55,0,0,0,1.06-2,3.06,3.06,0,0,0,.24-2.18,3.05,3.05,0,0,1-.16,2.22,12.75,12.75,0,0,1-1,2,37.09,37.09,0,0,1-2.57,3.75,88.22,88.22,0,0,1-5.94,6.88Z" transform="translate(-264.26 -69.1)"/></g><g class="cls-2"><path class="cls-4" d="M510.14,141.6a33.75,33.75,0,0,0,5.25-3.65,25.9,25.9,0,0,0,4.4-4.66,14.89,14.89,0,0,0,2.6-5.81,12.33,12.33,0,0,0,.12-3.21,13.17,13.17,0,0,0-.78-3.13,12.91,12.91,0,0,1,.87,3.12,11.79,11.79,0,0,1,0,3.25,15,15,0,0,1-2.48,6,26,26,0,0,1-4.33,4.87,34.65,34.65,0,0,1-5.26,3.88Z" transform="translate(-264.26 -69.1)"/></g><g class="cls-2"><path class="cls-4" d="M507.58,141.13a40,40,0,0,0,4.19-2.55,30.89,30.89,0,0,0,3.83-3.1,14.64,14.64,0,0,0,3-3.87,6.16,6.16,0,0,0,.52-4.77,6.26,6.26,0,0,1-.35,4.85,15.08,15.08,0,0,1-2.9,4.05A31,31,0,0,1,512.1,139a39.08,39.08,0,0,1-4.17,2.76Z" transform="translate(-264.26 -69.1)"/></g><g class="cls-2"><path class="cls-4" d="M513.62,142.7a46.84,46.84,0,0,0,4.22-3.64,41.14,41.14,0,0,0,3.78-4.14,24.08,24.08,0,0,0,3-4.7,13.44,13.44,0,0,0,1.42-5.38,13.45,13.45,0,0,1-1.25,5.46,24.76,24.76,0,0,1-2.89,4.85,38.57,38.57,0,0,1-3.67,4.3,47.53,47.53,0,0,1-4.17,3.85Z" transform="translate(-264.26 -69.1)"/></g><g class="cls-2"><path class="cls-4" d="M514.72,145a86.24,86.24,0,0,0,8.62-6.87,37.68,37.68,0,0,0,3.8-4,16.55,16.55,0,0,0,1.55-2.27,5.8,5.8,0,0,0,.79-2.62,5.81,5.81,0,0,1-.71,2.66,16,16,0,0,1-1.48,2.35,37.12,37.12,0,0,1-3.69,4.14,85.38,85.38,0,0,1-8.44,7.21Z" transform="translate(-264.26 -69.1)"/></g><g class="cls-2"><path class="cls-4" d="M518.46,146.81c2.34-2,4.62-4.05,6.76-6.25a38.28,38.28,0,0,0,3-3.46,13.57,13.57,0,0,0,1.27-1.92,4,4,0,0,0,.6-2.18,4,4,0,0,1-.52,2.22,14.4,14.4,0,0,1-1.2,2,40.18,40.18,0,0,1-2.9,3.61c-2.07,2.3-4.27,4.47-6.55,6.56Z" transform="translate(-264.26 -69.1)"/></g><g class="cls-2"><path class="cls-4" d="M520.94,147.67a48.1,48.1,0,0,0,5.7-3.83,19,19,0,0,0,2.5-2.33,6.82,6.82,0,0,0,1-1.4,2.56,2.56,0,0,0,.33-1.65,2.61,2.61,0,0,1-.25,1.69,7.79,7.79,0,0,1-.92,1.48,20.34,20.34,0,0,1-2.41,2.5,48,48,0,0,1-5.55,4.18Z" transform="translate(-264.26 -69.1)"/></g><g class="cls-2"><path class="cls-4" d="M523.56,149.33a85.93,85.93,0,0,0,7.71-6.83,34.69,34.69,0,0,0,3.37-3.89,12,12,0,0,0,1.32-2.2,3.49,3.49,0,0,0,.31-2.49,3.58,3.58,0,0,1-.22,2.53,13.2,13.2,0,0,1-1.25,2.27,35.12,35.12,0,0,1-3.26,4,86,86,0,0,1-7.51,7.15Z" transform="translate(-264.26 -69.1)"/></g><g class="cls-2"><path class="cls-4" d="M521.68,149.25a33.29,33.29,0,0,0,6.11-1.52,23.23,23.23,0,0,0,5.65-2.79,12.71,12.71,0,0,0,4.22-4.61,10.45,10.45,0,0,0,.94-3,12,12,0,0,0,0-3.17,12.16,12.16,0,0,1,.08,3.19,10.56,10.56,0,0,1-.86,3.07,13,13,0,0,1-4.17,4.84,24.28,24.28,0,0,1-5.67,3,33.16,33.16,0,0,1-6.2,1.73Z" transform="translate(-264.26 -69.1)"/></g><g class="cls-2"><path class="cls-4" d="M524.62,150.79a45.86,45.86,0,0,0,4.92-.81,36,36,0,0,0,4.79-1.39,15.76,15.76,0,0,0,4.35-2.39,5.38,5.38,0,0,0,2.21-4.27,5.46,5.46,0,0,1-2.09,4.41,15.86,15.86,0,0,1-4.33,2.59,35.55,35.55,0,0,1-4.8,1.6,45.53,45.53,0,0,1-5,1Z" transform="translate(-264.26 -69.1)"/></g><g class="cls-2"><path class="cls-4" d="M526,152.94a52.52,52.52,0,0,0,10.57-1.51,19.94,19.94,0,0,0,4.95-2,7.42,7.42,0,0,0,2-1.71,4.08,4.08,0,0,0,.92-2.46,4.12,4.12,0,0,1-.85,2.52,7.53,7.53,0,0,1-2,1.81,20.35,20.35,0,0,1-4.95,2.15,45.22,45.22,0,0,1-5.27,1.22c-1.77.31-3.55.54-5.36.68Z" transform="translate(-264.26 -69.1)"/></g><g class="cls-2"><path class="cls-4" d="M529.52,156.66A47.32,47.32,0,0,0,535,157a33.24,33.24,0,0,0,5.46-.44,15.08,15.08,0,0,0,5.15-1.73,6.18,6.18,0,0,0,3.13-4.27,5.93,5.93,0,0,1-1,2.55,7.28,7.28,0,0,1-2,1.88,15.55,15.55,0,0,1-5.18,1.94,34.19,34.19,0,0,1-5.51.63,46.91,46.91,0,0,1-5.56-.11Z" transform="translate(-264.26 -69.1)"/></g><g class="cls-2"><path class="cls-4" d="M528.52,158.48a55.58,55.58,0,0,0,6.66,1.44,21.39,21.39,0,0,0,3.39.24,6.72,6.72,0,0,0,1.67-.23,1.55,1.55,0,0,0,1.19-1.08,1.56,1.56,0,0,1-1.16,1.16,6.5,6.5,0,0,1-1.69.34,20.93,20.93,0,0,1-3.45-.06,55.93,55.93,0,0,1-6.8-1.08Z" transform="translate(-264.26 -69.1)"/></g><g class="cls-2"><path class="cls-4" d="M528.44,155.67a47.18,47.18,0,0,0,7.13-.12,17.24,17.24,0,0,0,3.49-.68,5.68,5.68,0,0,0,1.58-.78,1.88,1.88,0,0,0,.79-1.52,1.91,1.91,0,0,1-.73,1.59,5.33,5.33,0,0,1-1.58.88,17.1,17.1,0,0,1-3.5.88,47,47,0,0,1-7.21.5Z" transform="translate(-264.26 -69.1)"/></g><g class="cls-2"><path class="cls-4" d="M506.34,140.58a22.19,22.19,0,0,0,3-1.89,18.42,18.42,0,0,0,2.7-2.36,11.92,11.92,0,0,0,2.07-2.92,8,8,0,0,0,.8-3.49,8.09,8.09,0,0,1-.63,3.56,12.4,12.4,0,0,1-2,3.1,19.21,19.21,0,0,1-2.63,2.55,23.82,23.82,0,0,1-3,2.12Z" transform="translate(-264.26 -69.1)"/></g><g class="cls-2"><path class="cls-4" d="M497.77,139.68a85,85,0,0,0,7.22-9.46,34.74,34.74,0,0,0,2.85-5.22,12.89,12.89,0,0,0,.85-2.84,4,4,0,0,0-.5-2.86,4,4,0,0,1,.59,2.87,12.67,12.67,0,0,1-.77,2.9,34,34,0,0,1-2.7,5.35,87.74,87.74,0,0,1-7,9.75Z" transform="translate(-264.26 -69.1)"/></g><path class="cls-7" d="M453,166s89,32.45,77.14-10.26C520.87,138.36,479.66,121.43,453,166Z" transform="translate(-264.26 -69.1)"/><path class="cls-8" d="M493.55,138.59s10.55,7.44,8.3,20.06-16,13.66-19.59,13.14-14.69-.56-17.07-13.84S487.33,137.38,493.55,138.59Z" transform="translate(-264.26 -69.1)"/><path class="cls-9" d="M483.28,147.31s8.69-.87,7.68,2.27,3.18,5.95,3.18,5.95,1.05,5.24-1.22,6.81-4.72,3.22-7.52,1.53-5.93,2.26-7.52.8-5.24-2.15-5.06-5.12-.35-6.47,1.4-6.47,4.72-.31,4-2.08S481.51,146.26,483.28,147.31Z" transform="translate(-264.26 -69.1)"/><path class="cls-10" d="M480.39,149.67s-2.87-2.77-4.12-1.19.16,1.26-.22,2.52,1.47,2.08.6,3.76-1,2.47.65,2.93S482.07,151.62,480.39,149.67Z" transform="translate(-264.26 -69.1)"/><circle class="cls-11" cx="218.49" cy="87.29" r="4.2"/><path class="cls-5" d="M388,118.89s10-19.65-.71-18.72l-10.67-.7-10.15-.68-5.05-.68-7-.71-4.56-.31-6.05-1H329.89s-10,.53-11.12,2.65a28.47,28.47,0,0,1-4.74,1.42l-3.89.51-3.16.58-2.22.53-3.07,1.24-4.54,1.81-6.22,1.83-5.72.81-2.55.49-6.28,1.09-4,.85-3.74,1.67-1.55,2.29-.56,3.67s-.9,7.44,4.53,0a8,8,0,0,1,6.38-3.38,5.35,5.35,0,0,1,2.67.44l6.82.3,8.37.36,11,1.58,10.77.91,6.45.51h12.05l10.06-.51s14.84-.43,16.73,0,10.48,1.06,10.48,1.06Z" transform="translate(-264.26 -69.1)"/><g class="cls-2"><path class="cls-4" d="M372.5,117.49a42.59,42.59,0,0,1,3.11-7.44c.62-1.17,1.23-2.35,1.9-3.49.34-.57.66-1.15,1-1.73a6.82,6.82,0,0,0,.8-1.79l.1,0v.52a3.88,3.88,0,0,1-.11.49,7.76,7.76,0,0,1-.29,1c-.22.64-.47,1.26-.74,1.87-.53,1.24-1.12,2.44-1.72,3.64-1.24,2.38-2.56,4.72-3.91,7Z" transform="translate(-264.26 -69.1)"/></g><g class="cls-2"><path class="cls-4" d="M388.1,117a14,14,0,0,1,0-3.17,24.16,24.16,0,0,1,.53-3.06,21.1,21.1,0,0,1,1-3,14.3,14.3,0,0,1,.68-1.43,3.91,3.91,0,0,1,1-1.3l.06.07a4.94,4.94,0,0,0-.59,1.39c-.16.49-.3,1-.43,1.48q-.4,1.5-.75,3-.75,3-1.43,6Z" transform="translate(-264.26 -69.1)"/></g><g class="cls-2"><path class="cls-4" d="M376,116.62a38.28,38.28,0,0,1,2.14-7.38c.47-1.18.92-2.36,1.45-3.5.26-.58.51-1.16.73-1.74a4.81,4.81,0,0,0,.53-1.77l.1,0a4.19,4.19,0,0,1-.12,1.93c-.14.62-.31,1.24-.5,1.85-.38,1.22-.81,2.43-1.26,3.63-.93,2.38-1.93,4.73-3,7.06Z" transform="translate(-264.26 -69.1)"/></g><g class="cls-2"><path class="cls-4" d="M364.44,116.16a22.56,22.56,0,0,1,.27-3.61c.16-1.19.41-2.35.65-3.5s.55-2.29.88-3.42l.48-1.7a5.28,5.28,0,0,0,.3-1.69l.08,0a3.76,3.76,0,0,1,.14,1.79c-.05.6-.13,1.19-.22,1.78-.19,1.18-.43,2.34-.68,3.51-.55,2.32-1.16,4.63-1.81,6.92Z" transform="translate(-264.26 -69.1)"/></g><g class="cls-2"><path class="cls-4" d="M350.3,115.31a21.06,21.06,0,0,1,.38-3.41c.19-1.11.46-2.19.72-3.27s.59-2.15.91-3.2c.16-.53.33-1.06.47-1.58a5.51,5.51,0,0,0,.28-1.62l.09,0a3.92,3.92,0,0,1,.15,1.7,16.06,16.06,0,0,1-.21,1.68c-.19,1.11-.44,2.21-.72,3.31-.58,2.18-1.25,4.33-2,6.46Z" transform="translate(-264.26 -69.1)"/></g><g class="cls-2"><path class="cls-4" d="M341.54,115.87a48.64,48.64,0,0,1,.33-8.56c.17-1.41.32-2.81.54-4.2.11-.7.2-1.4.25-2.09a4.2,4.2,0,0,0-.06-2l.07-.07a1.82,1.82,0,0,1,.4,1,9.46,9.46,0,0,1,.12,1.07c0,.71,0,1.43,0,2.14-.05,1.43-.17,2.85-.32,4.27-.33,2.84-.75,5.67-1.23,8.48Z" transform="translate(-264.26 -69.1)"/></g><g class="cls-2"><path class="cls-4" d="M344.46,116.16a45.39,45.39,0,0,1,.77-8c.24-1.32.46-2.63.73-3.92.14-.65.26-1.3.34-2a4.16,4.16,0,0,0,0-1.92l.07-.07a1.94,1.94,0,0,1,.35,1,8.72,8.72,0,0,1,.07,1c0,.68,0,1.36-.09,2-.12,1.34-.31,2.68-.53,4-.46,2.66-1,5.29-1.65,7.92Z" transform="translate(-264.26 -69.1)"/></g><g class="cls-2"><path class="cls-4" d="M332,116.3a43.23,43.23,0,0,1-.66-8.45c0-1.4,0-2.8.15-4.19.05-.7.08-1.4.12-2.1a8.36,8.36,0,0,0,0-2.06l.08-.06a6.23,6.23,0,0,1,.43,2.08c.06.7.11,1.41.13,2.11.05,1.41.08,2.82.08,4.22,0,2.82-.12,5.64-.24,8.45Z" transform="translate(-264.26 -69.1)"/></g><g class="cls-2"><path class="cls-4" d="M286,114a4.29,4.29,0,0,1,.08-1.5,6.87,6.87,0,0,1,.39-1.26c.19-.39.37-.76.58-1.1.07-.09.1-.18.16-.26l.16-.25a1,1,0,0,0,.21-.6l.07-.08a1.53,1.53,0,0,1,.17,1.36,7.54,7.54,0,0,1-.43,1.32,18.85,18.85,0,0,1-1.31,2.42Z" transform="translate(-264.26 -69.1)"/></g><g class="cls-2"><path class="cls-4" d="M290.05,114a4.93,4.93,0,0,1-.49-1.53,8.78,8.78,0,0,1-.11-1.43c0-.46.05-.91.11-1.35,0-.22.07-.45.09-.66a1.58,1.58,0,0,0,0-.71l.05-.09a2,2,0,0,1,.67,1.33,10.78,10.78,0,0,1,.11,1.49,22.49,22.49,0,0,1-.3,3Z" transform="translate(-264.26 -69.1)"/></g><g class="cls-2"><path class="cls-4" d="M299,114.82a10.08,10.08,0,0,1-.26-2.27,19.32,19.32,0,0,1,.08-2.16c.07-.71.15-1.4.25-2.09,0-.34.1-.68.12-1a1.36,1.36,0,0,0-.16-1l0-.09a1.31,1.31,0,0,1,.63.92,6.78,6.78,0,0,1,.16,1.1,16.46,16.46,0,0,1,0,2.22,40,40,0,0,1-.71,4.36Z" transform="translate(-264.26 -69.1)"/></g><g class="cls-2"><path class="cls-4" d="M281.4,114.31a4,4,0,0,1-.64-1.2,5.22,5.22,0,0,1-.25-1.13,6.73,6.73,0,0,1,0-1.1c0-.38.11-.74.16-1.26l.07-.06a3.16,3.16,0,0,1,.53,1.11,7.29,7.29,0,0,1,.24,1.2,15.29,15.29,0,0,1,0,2.44Z" transform="translate(-264.26 -69.1)"/></g><g class="cls-2"><path class="cls-4" d="M488,175a10,10,0,0,1,1.51.7,10.37,10.37,0,0,1,1.37.89,6.22,6.22,0,0,1,2,2.5,5.84,5.84,0,0,0-2.28-2.08,9.23,9.23,0,0,0-1.4-.63,10.2,10.2,0,0,0-1.45-.41Z" transform="translate(-264.26 -69.1)"/></g><g class="cls-2"><path class="cls-4" d="M497.73,177a12,12,0,0,1,3.25,2,4,4,0,0,1,1.12,1.57,2.17,2.17,0,0,1-.17,1.83,2.07,2.07,0,0,0-.06-1.74,3.83,3.83,0,0,0-1.2-1.27,11.12,11.12,0,0,0-3.26-1.47Z" transform="translate(-264.26 -69.1)"/></g><g class="cls-2"><path class="cls-4" d="M505.67,177.37a11.62,11.62,0,0,1,1,1.07,9.17,9.17,0,0,1,.85,1.19,3.72,3.72,0,0,1,.63,2.76,3.51,3.51,0,0,0-1-2.47,9.57,9.57,0,0,0-2.08-1.74Z" transform="translate(-264.26 -69.1)"/></g><g class="cls-2"><path class="cls-4" d="M513.66,177.42a23.13,23.13,0,0,1,3.6,3.24,9.37,9.37,0,0,1,1.35,2,2.74,2.74,0,0,1,.19,2.35,2.61,2.61,0,0,0-.41-2.23A9,9,0,0,0,516.9,181a21.87,21.87,0,0,0-3.78-2.73Z" transform="translate(-264.26 -69.1)"/></g><g class="cls-2"><path class="cls-4" d="M522.42,175.81a11.31,11.31,0,0,1,1.76,1.24,10.71,10.71,0,0,1,1.48,1.53,8,8,0,0,1,1.08,1.8,6.45,6.45,0,0,1,.5,2,6.33,6.33,0,0,0-.72-1.9,7.93,7.93,0,0,0-1.24-1.58,11,11,0,0,0-1.55-1.26,10.81,10.81,0,0,0-1.73-.94Z" transform="translate(-264.26 -69.1)"/></g><g class="cls-2"><path class="cls-4" d="M534.88,177.86a6.76,6.76,0,0,0-3.37-3c-.69-.32-1.44-.48-2.14-.79a22.51,22.51,0,0,1-2.13-1V173a6.2,6.2,0,0,1,2.43.15,7.7,7.7,0,0,1,2.21,1,8.74,8.74,0,0,1,1.9,1.53,5.86,5.86,0,0,1,1.19,2.1Z" transform="translate(-264.26 -69.1)"/></g><g class="cls-2"><path class="cls-4" d="M524.91,174.09a17.6,17.6,0,0,1,3.6,2.26,7.46,7.46,0,0,1,1.45,1.57,2.87,2.87,0,0,1,.55,2,2.81,2.81,0,0,0-.75-1.85,7.23,7.23,0,0,0-1.55-1.31,16.78,16.78,0,0,0-3.66-1.73Z" transform="translate(-264.26 -69.1)"/></g><g class="cls-2"><path class="cls-4" d="M517.87,176.55a11,11,0,0,1,2.67,1.47,4.15,4.15,0,0,1,1,1.14,1.75,1.75,0,0,1,.16,1.46,1.59,1.59,0,0,0-.37-1.32,3.68,3.68,0,0,0-1.1-.86,10.26,10.26,0,0,0-2.66-.93Z" transform="translate(-264.26 -69.1)"/></g><path class="cls-1" d="M531.78,164.31,533,175.06s5.6.27,8.54-9.74S531.78,164.31,531.78,164.31Z" transform="translate(-264.26 -69.1)"/><g class="cls-2"><path class="cls-4" d="M529.63,160.25a32.39,32.39,0,0,0,8.31,2.37,14.54,14.54,0,0,0,4.32,0,6.49,6.49,0,0,0,3.77-2,6.54,6.54,0,0,1-3.73,2.18,14.43,14.43,0,0,1-4.4.22,28.92,28.92,0,0,1-4.34-.73,37.61,37.61,0,0,1-4.23-1.32Z" transform="translate(-264.26 -69.1)"/></g><path class="cls-12" d="M487.84,175.47s48.77,7.83,39.42-22.9c7.4,7,1.28,18.24,1.28,18.24S524.88,181.8,487.84,175.47Z" transform="translate(-264.26 -69.1)"/><g class="cls-2"><path class="cls-4" d="M530.49,168.55a14,14,0,0,1,2.36.27,11,11,0,0,1,2.26.69,6.65,6.65,0,0,1,2,1.29,4.57,4.57,0,0,1,1.16,2,4.44,4.44,0,0,0-1.33-1.8,6.09,6.09,0,0,0-2-1,10,10,0,0,0-2.18-.42,13.61,13.61,0,0,0-2.21,0Z" transform="translate(-264.26 -69.1)"/></g><path class="cls-1" d="M456.87,158.92s-4.25,6.93-4.58,7.22-4,1.79-4,1.79l5.6-8.76Z" transform="translate(-264.26 -69.1)"/></svg>