<svg xmlns="http://www.w3.org/2000/svg" xmlns:xlink="http://www.w3.org/1999/xlink" viewBox="0 0 778.36 653.23"><defs><style>.cls-1,.cls-8{fill:#3c2415;}.cls-1,.cls-5{stroke:#370000;}.cls-1,.cls-12,.cls-14,.cls-15,.cls-18,.cls-21,.cls-23,.cls-4,.cls-5,.cls-6,.cls-7{stroke-miterlimit:10;}.cls-18,.cls-2{fill:#e39f82;}.cls-3{fill:#a1352d;}.cls-4{fill:#231f20;stroke:#431f20;}.cls-12,.cls-21,.cls-23,.cls-5,.cls-6,.cls-7{fill:none;}.cls-6{stroke:url(#linear-gradient);}.cls-7{stroke:url(#linear-gradient-2);}.cls-9{fill:#492b1a;}.cls-10{fill:#301c10;}.cls-11{fill:#442919;}.cls-12{stroke:#3c2415;}.cls-13{fill:#382118;}.cls-14{fill:#514829;}.cls-14,.cls-15{stroke:#5a5332;}.cls-15{fill:#50482a;}.cls-16{fill:#5a5332;}.cls-17{fill:#4f442a;}.cls-18{stroke:#e39f82;}.cls-19{fill:#070707;}.cls-20{fill:#353535;}.cls-21{stroke-width:2px;stroke:url(#radial-gradient);}.cls-22{fill:url(#radial-gradient-2);}.cls-23{stroke:url(#linear-gradient-3);}.cls-24{fill:url(#linear-gradient-4);}</style><linearGradient id="linear-gradient" x1="274.53" y1="312.18" x2="377.06" y2="312.18" gradientUnits="userSpaceOnUse"><stop offset="0" stop-color="#231f20"/><stop offset="0.46"/><stop offset="1" stop-color="#f0f0f0"/><stop offset="1" stop-color="#fff"/></linearGradient><linearGradient id="linear-gradient-2" x1="292.69" y1="318.7" x2="368.56" y2="318.7" xlink:href="#linear-gradient"/><radialGradient id="radial-gradient" cx="288.14" cy="347.48" r="10.79" gradientUnits="userSpaceOnUse"><stop offset="0" stop-color="#231f20"/><stop offset="0.4" stop-color="#6d643b"/><stop offset="0.91" stop-color="#4d4a4b"/></radialGradient><radialGradient id="radial-gradient-2" cx="288.16" cy="355.03" r="12.52" xlink:href="#radial-gradient"/><linearGradient id="linear-gradient-3" x1="287.64" y1="286.44" x2="296.63" y2="286.44" gradientUnits="userSpaceOnUse"><stop offset="0" stop-color="#fff"/><stop offset="0.84" stop-color="#231f20"/><stop offset="0.97" stop-color="#4d4a4b"/></linearGradient><linearGradient id="linear-gradient-4" x1="298.68" y1="297.19" x2="306.74" y2="297.19" gradientUnits="userSpaceOnUse"><stop offset="0" stop-color="#fff"/><stop offset="0.82" stop-color="#231f20"/></linearGradient></defs><title>Illustration1</title><g id="back_hair" data-name="back hair"><path class="cls-1" d="M240.65,196.91s-15.87,66.78-13.75,103.88,2.43,44.57-12.56,61.41-23.77,13.46-23.77,13.46,19.62,18.89,42.19,16.87,97.86-44.23,97.86-44.23l70.6,58.39s25.64,34.64,56.23,26.09c9.68-4.5,25.87-17.32,25.87-17.32S437.45,410.9,453,312c-17.54-14.1-40.58-126.56-40.58-126.56L378,155.76Z" transform="translate(210.7 -84.19)"/></g><g id="right_arm_body" data-name="right arm body"><path class="cls-2" d="M254.65,346.52s36.57,96.08,35.72,118.19-35.72,75.68-35.72,75.68l56.12,34.86,128.4-22.1L406,454.51l18.71-123.3,3.4-12.75,15.3,11.05,20.41,34s32.31,52.72,47.62,68-6.8,51-6.8,51-42.83,86.5-44.08,90.44-7,5.37-14.32,4.12-14.86,3.22-14.86,3.22l-9.85,5.73s-6.62,5.37-10.56,8.06-5.82,6.16-8.72,7.62-11.79,15.51-11.79,15.51a142.18,142.18,0,0,0-3.36,16.14c-1.18,8.35,3.27,3.27,3.27,3.27s3.08-7,8.43-17.24,18.78-16,18.78-16-5,5.62-7.71,8.34-5.8,5.27-5.8,5.27l-2.54,5.26L398,627.06l-1.82,7.72-1.72,5.08a50.25,50.25,0,0,0-2.72,5.35c-.73,1.9.45,4.26.45,4.26l1.27.46s6.56-8.7,9.22-17.92,17.83-20.9,17.83-20.9l-2.46,2.67s-5.74,5.12-8.81,8.6a22.66,22.66,0,0,0-4.3,7.79L400,641.23s-1.23,1.44-5.74,9c7,2.25,14.14-13.73,17.62-19.47s18.85-14.75,16-13.11-12.7,11.27-12.7,11.27l-6.56,17.62s-.82,1.43,3.9,0S417,638,421.33,631s21.51-13,21.51-13,13.44,1.09,21.8-4,10.9-20.34,12.71-26.52,11.26-15.62,13.81-20.7,16.71-22.53,16.71-22.53l9.44-15.62c3.61-5.68,14.7-24.41,25.43-38.14,13.42-17.18,7.67-80.39,7.67-80.39s-27.27-46.59-54.55-85.23-31.81-95.45-85.22-75c-14.81,5.68-25.26,9.34-32.61,11.67,0,0-62.78,6.26-72,4s-25.75-5-25.75-5-36.45-17.65-57.55,15c-8.06,9.21-9.59,62.54-9.59,62.54l2.69,52.94,8.82,54.87s22.64,74.05,51,17.26,22.63-50.64,28-69.44a68.43,68.43,0,0,0,1.93-10.77c1.58-14-21.24-31.35-27-18.47L265.67,413.2l-8.06,23.4S267.42,367.32,254.65,346.52Z" transform="translate(210.7 -84.19)"/></g><g id="tank"><path class="cls-3" d="M396.39,255.2,410,317.7l14.68,13.51,7.39,43s8.84,24.06,0,31.91-12.64,6.88-15.9,16.7-5.62,27.95-8.36,31.37l31.92,96L445,566l-30.72,14.48-38.63,22.83-48.28-3.51-64.95-45.21-10.68-17S265.3,523.59,268,514s25.18-39.1,19.88-58.32-10.27-26.43-10.27-26.43l-4.64-7.37s-8.62-11.93-17.57-16.24c-1.65-3.65-6.95-15.25,1.33-33.47,1.33-6-2.32-28.83-2.32-28.83s7.43,3.07,10.78,6.31c11.41,11,37,35.56,40.86,37.53,5,2.55,41.81,26.74,52.42,6.86,12.59-14.91,51.36-57.33,47.72-71.91s-8.95-41.1-8.95-41.1l-4.64-21.87s-.94-9.87,3.84-3.94" transform="translate(210.7 -84.19)"/><path class="cls-3" d="M261.79,346.39,259,318.84V278.43l2.77-22.55s-1.34-3.16-2.77,0-4.62,24-4.62,24v26.46s-2.69,42.62,2.94,47S261.79,346.39,261.79,346.39Z" transform="translate(210.7 -84.19)"/></g><g id="Layer_7" data-name="Layer 7"><path class="cls-4" d="M273.21,503s55.74,76.1,152.37,4.54c19.39,52.05,30.5,67.5,30.5,67.5l94.33,89.37,16.75,19v49.86l-52.58,3.62-47.13-22.26s-66.17-73.82-110.59-73.82-50.76-12.69-87.93,32.63-63.45,63.45-63.45,63.45L104.87,726l-10.78-1.2,45-55.2,46.55-57.2,36.69-37.87,24.06-32.74Z" transform="translate(210.7 -84.19)"/></g><g id="Layer_3" data-name="Layer 3"><path class="cls-5" d="M276.47,259S344,372.59,378,261.53" transform="translate(210.7 -84.19)"/><path class="cls-6" d="M275,256.69s67.55,245.19,101.56,5.49" transform="translate(210.7 -84.19)"/><path class="cls-7" d="M293.19,242s49.8,338.87,74.87,7.58" transform="translate(210.7 -84.19)"/></g><g id="hair"><path class="cls-8" d="M253.76,193c-1.09,15.42-3.16,30.72-5.65,45.94s-5.5,30.36-9.08,45.38A405,405,0,0,1,226,328.83a175.75,175.75,0,0,1-9.24,21.42,75.18,75.18,0,0,1-6.23,10,34.41,34.41,0,0,1-4,4.35,11.51,11.51,0,0,1-5.16,2.74,11.58,11.58,0,0,0,4.4-3.49,33.61,33.61,0,0,0,3.15-4.68,83,83,0,0,0,4.73-10.32c1.39-3.53,2.65-7.13,3.81-10.76s2.32-7.26,3.36-10.93c4.21-14.69,7.88-29.55,11.46-44.46l10.55-44.82C246.27,222.89,249.81,207.92,253.76,193Z" transform="translate(210.7 -84.19)"/><path class="cls-9" d="M240.79,215.64c0,7.68-.18,15.35-.44,23s-.57,15.35-1,23-.94,15.33-1.54,23-1.36,15.32-2.21,23-1.72,15.32-2.75,23a183.86,183.86,0,0,1-4.62,22.78,134.72,134.72,0,0,1-7.92,22.08,64.27,64.27,0,0,1-6,10.28,33,33,0,0,1-4,4.5,17,17,0,0,1-5,3.3l-.39-.7a25.54,25.54,0,0,0,6.32-9,85.29,85.29,0,0,0,3.89-10.44c2.18-7.15,3.83-14.51,5.39-21.9l4.59-22.27c.78-3.72,1.54-7.45,2.24-11.2s1.35-7.51,2-11.27q1.78-11.31,3.27-22.68t2.83-22.78c1.82-15.2,3.28-30.46,4.59-45.73Z" transform="translate(210.7 -84.19)"/><path class="cls-10" d="M405.43,189.84c6.92,19.12,12.85,38.35,18.72,57.57L441.36,305c5.78,19.13,11.56,38.22,18.18,56.94a294.92,294.92,0,0,0,11.06,27.5,95.92,95.92,0,0,0,7.19,12.8c.66,1,1.45,1.95,2.17,2.95s1.56,1.88,2.45,2.7a19,19,0,0,0,6,4.29,18.26,18.26,0,0,1-7.3-2.6,36.33,36.33,0,0,1-3.29-2.21c-1-.83-2-1.65-3-2.56A78.48,78.48,0,0,1,464.68,393a184.14,184.14,0,0,1-15.31-26.79A409.56,409.56,0,0,1,428,309c-5.81-19.43-10.58-39.12-14.45-59-1.9-9.93-3.6-19.91-5-29.94S406,200,405.43,189.84Z" transform="translate(210.7 -84.19)"/><path class="cls-11" d="M405.43,205.6c5.83,17.5,10.69,35.18,15.29,52.91s8.78,35.53,12.77,53.37,7.73,35.72,11.35,53.63l5.42,26.85q1.37,6.72,2.87,13.38c.51,2.23,1.05,4.44,1.7,6.62.3,1.09.63,2.18,1,3.24a9,9,0,0,0,1.59,3A8.15,8.15,0,0,1,455.1,416c-.66-1-1.25-2-1.81-3-1.11-2.05-2.09-4.16-3.05-6.27-1.9-4.23-3.57-8.55-5.18-12.87-3.18-8.67-6-17.44-8.61-26.25-5.22-17.63-9.7-35.43-13.69-53.33s-7.48-35.89-10.47-54S406.79,224,405.43,205.6Z" transform="translate(210.7 -84.19)"/><path class="cls-12" d="M-163.52,604.92s5.86-3.19,10.65,1.6c0,5.85-6.92,24.21,17.56,29.53,6.65,0,19.69-.53,23.68-22.08,0-5.06-6.39-19.42-20.76-17.29,0,0-10.64-1.07-18.09,5.85,0,0-6.38-5.59-13-2.93-2.12-3.14-11.17-14.1-25-11.17s-17,5.05-20.48,11.7,1.06,20.76,8,25.55,24.74,3.72,26.87,1.06S-166.44,623.28-163.52,604.92Z" transform="translate(210.7 -84.19)"/><path class="cls-13" d="M430.38,341.94c2.42,7.09,4.29,14.28,6,21.49s3.15,14.46,4.45,21.73,2.42,14.58,3.39,21.91c.47,3.66.92,7.33,1.32,11l.58,5.53c.11.91.2,1.85.33,2.75a15.9,15.9,0,0,0,.49,2.74,25.1,25.1,0,0,1-2.43-5.1c-.67-1.75-1.26-3.53-1.85-5.3-1.15-3.55-2.15-7.14-3.07-10.74-1.84-7.2-3.37-14.45-4.67-21.74s-2.36-14.63-3.17-22A201.13,201.13,0,0,1,430.38,341.94Z" transform="translate(210.7 -84.19)"/><path class="cls-11" d="M422.75,256.15q9,33.74,18.93,67.26c3.34,11.16,6.77,22.3,10.46,33.34,1.85,5.52,3.77,11,5.87,16.45,1.05,2.71,2.14,5.41,3.36,8.05.62,1.32,1.25,2.63,2,3.89.37.63.75,1.25,1.18,1.84a5.16,5.16,0,0,0,1.55,1.5,5.1,5.1,0,0,1-1.6-1.47,18.44,18.44,0,0,1-1.23-1.8c-.77-1.25-1.44-2.55-2.1-3.85-1.29-2.61-2.47-5.28-3.6-8-2.25-5.38-4.33-10.83-6.34-16.31-4-10.95-7.76-22-11.42-33.07q-10.93-33.22-20.88-66.78Z" transform="translate(210.7 -84.19)"/><path class="cls-8" d="M245.25,256.7l-1.13,8.44-1.25,8.8c-.87,5.87-1.78,11.72-2.77,17.57-2,11.69-4.22,23.34-6.89,34.9a251.55,251.55,0,0,1-10.11,34.13c-2.22,5.5-4.7,11-8.32,15.78-.44.6-.95,1.16-1.43,1.73s-1,1.1-1.61,1.58a12.18,12.18,0,0,1-3.8,2.4,8.29,8.29,0,0,1-4.43.5,11.67,11.67,0,0,1-4.08-1.7,11.56,11.56,0,0,0,4.11,1.49,8,8,0,0,0,4.23-.69,11.74,11.74,0,0,0,3.52-2.49,18.56,18.56,0,0,0,1.48-1.59c.44-.58.9-1.14,1.31-1.75,3.28-4.83,5.46-10.34,7.38-15.86a249.08,249.08,0,0,0,8.32-34.24c2.09-11.58,3.73-23.25,5.12-34.94q1-8.77,1.89-17.56l.81-8.79L238,260l.18-2.21.09-1.11,0-.57c0-.23,0-.3.11-.89Z" transform="translate(210.7 -84.19)"/></g><g id="Layer_9" data-name="Layer 9"><path class="cls-14" d="M314.78,87.85s-44.31.53-62.25,17.41-80.72,68.58-33.76,142.44,147.71,107.1,215.77,13.72c3.17-4.73,40.36-70.44-13.75-128.75-13.77-15-44.27-43.13-66.89-44.82S330.76,81.67,314.78,87.85Z" transform="translate(210.7 -84.19)"/><path class="cls-15" d="M319.52,112.72s-33.23.69-46,47.69c-.72,2.65-2.11,11.15-3.21,19.09-.79,5.73-1.42,11.17-1.54,13.89-3.38,79.68,115.65,67.88,117.62,14.76.34-9.15.68-18.22.65-26.91C386.88,139.46,378.2,106.21,319.52,112.72Z" transform="translate(210.7 -84.19)"/><path class="cls-16" d="M282.36,191.77s38.31,49,104.6-3.3c-6.51,37.79,6.14,20.1-13.13,45.48S280.63,257,268.74,213c2.36-11.38,4.67-12.25,3.68-15.9s-2.58-14.23-2.58-14.23Z" transform="translate(210.7 -84.19)"/><path class="cls-17" d="M387,216.54S334.17,301.38,268.74,213c-.07,12.36-.73,54.15,83.43,56.44C378,261.53,387.67,224.93,387,216.54Z" transform="translate(210.7 -84.19)"/></g><g id="hat_hand" data-name="hat hand"><path class="cls-18" d="M301.16,374s2.75-37.87,6.51-46,8.63-21.41,8.63-21.41,18.31-50.27,4.07-26.59c-3.56,8.73-12.21,26.18-12.21,26.18l-7,15.88s3.18-22.53,8-29.59,17.41-27.81,8.35-22.88c-1.29.71-3.19,1.7-7.7,7.74a54.65,54.65,0,0,0-6.62,11.4s-5,6.64-7.26,20.77c-1.27,6.23,3.19-9.37,1-18.28-2-8.19,5-26.43,7.18-35.32s-3.55-1.74-6.67,6.24c0,0-7.36,11.78-7.89,25.76s1,10,1,10-7.38-14.54-4.84-21.61,3.82-18.28,10.18-22.43c3.85-2.52,11.27-10.08,11.91-13.79.06-.39-.53-.29-1.57.18a43.9,43.9,0,0,0-5.19,3c-7.59,4.95-19,14.17-20.16,20.16-1.78,9.14-7.88,19.95-3.05,29.92s1.13,40.5-1,53.4L272.49,374,268,401.9l-3.7,17.55,20,28.56S292.9,424,301.16,374Z" transform="translate(210.7 -84.19)"/><path class="cls-2" d="M479.27,534.07l-19.65,36.82s1.88,6.05-7.94,6.67-11.39-1.2-15.84.79-21.48,13.34-21.48,13.34l-13.84,11.57s-7.84,17,2.17,6.8,16.63-11.39,16.63-11.39l11.61-3.41-21.05,16.56-5.8,5.27s-15,27.75,9.56,0c0,0,.59-.48,1.61-1.23a71.59,71.59,0,0,1,14.54-8.54c2.5-.68,7.29-2.5,7.29-2.5s-19.53,7.5-24.53,15.2-6.3,9.4-6.3,9.4-4.9,12.09,10-4.4a34,34,0,0,1,6-5.3c2.6-1.8,9.4-4.4,9.4-4.4l-12,9.33a14.5,14.5,0,0,0-4.12,6c-1.2,3.6-2.4,7.3-2.4,7.3s-1.7,2.91,1.7,1.3,5-8,5-8,6.24-6.3,10.52-7.6,8.63-8.5,20.82-7.78,19.28-19.46,19.28-19.46l4-8.73,33.4-43.41,9.44-15.62Z" transform="translate(210.7 -84.19)"/><path class="cls-19" d="M304,243.41s-2.15,3.19-3.7,0C302.13,242.26,317.06,230.75,304,243.41Z" transform="translate(210.7 -84.19)"/><path class="cls-19" d="M304,253.77a3.5,3.5,0,0,1-1.17,2c-.52.32-1.25.31-2.24-.56C301.86,253.42,311.21,237,304,253.77Z" transform="translate(210.7 -84.19)"/><path class="cls-19" d="M301.86,255.93l.86.31s.83.16,1.57-3.13-.64-.34-.64-.34Z" transform="translate(210.7 -84.19)"/><path class="cls-19" d="M322.52,276.29s-1.7,2.25,0,2.79,1.78.69,2.25-1.39S331.16,261.61,322.52,276.29Z" transform="translate(210.7 -84.19)"/><path d="M316.6,270.32s-3.76,1.58-.65,3.12,2.89,1.82,3.95-1.89C320.19,270,327.45,257.84,316.6,270.32Z" transform="translate(210.7 -84.19)"/><path class="cls-20" d="M415.52,636.34s-.57-.91-1.6.62-5,5.12.57,1.79c1-.65,1.68-1.07,1.65-1.56A1.33,1.33,0,0,0,415.52,636.34Z" transform="translate(210.7 -84.19)"/><path class="cls-20" d="M408.1,629.34s-1-.38-1.61,1.42-4.78,7.8,1.23,1.72C408.48,632,410.17,630.87,408.1,629.34Z" transform="translate(210.7 -84.19)"/><path class="cls-20" d="M402.21,625.17s-.77-1.07-1.53.65l-.77,1.73s-3.52,6.42,1.34,1c.5-.38,2-1.38,2-1.84A2.3,2.3,0,0,0,402.21,625.17Z" transform="translate(210.7 -84.19)"/><path class="cls-20" d="M399.53,610.42s-.9-1.42-1.28,0l-.38,1.41s-3.4,4.47.68,1.14a13.25,13.25,0,0,0,1.44-1S401,611.07,399.53,610.42Z" transform="translate(210.7 -84.19)"/><path class="cls-21" d="M275,343.8s-2,3.13,2.14,4.52,27,4.58,24.51,0" transform="translate(210.7 -84.19)"/><path class="cls-22" d="M275.14,342.06c-1.2,1.56-.73,5.12-.57,6.88.59,6.55,7.91,11.1,12.92,14.21,2.64,1.64,12.62,8.31,14.18,2.16a17.3,17.3,0,0,0-.14-7.16c.4,1.55-.41,3.43,0,5,.59,2.29-1.32-2.45.11-2.67-.1,0-.43,1.45-.79,1.61-2.89,1.26-5.38.25-8.23-1.09-6-2.83-17.42-8.91-18-16.72l0,2.5v-.39l0,2.5a3.4,3.4,0,0,1,.56-1.83c.82-1.07-.79-4,0-5Z" transform="translate(210.7 -84.19)"/><path class="cls-23" d="M288.15,285.36s-.32,1.85,2.94,1.74,5.34-.11,5-.87" transform="translate(210.7 -84.19)"/><path class="cls-24" d="M298.68,295s.49,1.73,3.18,3.47,2.65,2.94,4.14,2.72c.71-2,2-2.39-2.35-5.22C302.71,294.4,299.31,291.22,298.68,295Z" transform="translate(210.7 -84.19)"/></g></svg>