<?xml version="1.0" encoding="utf-8"?>
<!-- Generator: Adobe Illustrator 23.0.2, SVG Export Plug-In . SVG Version: 6.00 Build 0)  -->
<svg version="1.1" id="Layer_1" xmlns="http://www.w3.org/2000/svg" xmlns:xlink="http://www.w3.org/1999/xlink" x="0px" y="0px"
	 viewBox="0 0 792 612" style="enable-background:new 0 0 792 612;" xml:space="preserve">
<style type="text/css">
	.st0{opacity:0.89;}
	.st1{fill:#FFFFFF;}
	.st2{fill:#202020;}
	.st3{fill:#202020;stroke:#000000;stroke-miterlimit:10;}
	.st4{fill:#434343;}
</style>
<g class="st0">
	<path class="st1" d="M527.04,343.86c-0.32,0.64-0.98,1.05-1.87,0.73c-4.38-1.53-6.83-5.02-9.33-8.54
		c-0.01-0.01-0.02-0.01-0.03-0.02c1.85,4.72,4.04,9.36,7.51,13.06c4.88,5.22,11.95,8.26,19.04,8.57c6.87,0.3,17.64,0.51,24.53-3.14
		c-10.26-0.8-20.71-1.31-30.27-5.41C533.41,347.75,530.17,345.95,527.04,343.86z"/>
	<path class="st1" d="M388.33,204.44c2.09-3.5,4.27-6.96,6.46-10.43c-0.51-2.44-1.02-4.89-1.48-7.34
		C391,192.36,388.85,198.39,388.33,204.44z"/>
	<path class="st1" d="M377.56,144.94c-5.88,2.99-11.47,6.79-15.04,11.89c6.15-2.2,12.16-4.84,18.02-7.77
		C379.2,148,378.17,146.57,377.56,144.94z"/>
	<path class="st1" d="M384.48,147.04c0.08-0.04,0.15-0.08,0.23-0.12c0.32-1.87,0.62-3.74,0.91-5.62c-1.73,0.71-3.51,1.47-5.28,2.29
		C380.83,145.61,382.46,146.64,384.48,147.04z"/>
	<path class="st1" d="M380.55,139.83c1.41-0.63,2.8-1.23,4.15-1.8c0.5-0.21,1-0.4,1.5-0.6c0.33-2.26,0.63-4.52,0.93-6.79
		c-3,2.48-5.5,5.49-6.5,8.88C380.6,139.63,380.58,139.73,380.55,139.83z"/>
	<path class="st1" d="M413.86,128.71c5.32-4.02,10.31-8.45,14.58-13.44c-11.18,0.93-21.67,4.07-31.82,8.28
		c0.01,0.09,0.03,0.16,0.02,0.26c-0.17,3.59-1.06,7.04-2.07,10.47C400.9,132.09,407.35,130.26,413.86,128.71z"/>
	<path class="st1" d="M400.08,142.07c-1.86,1.14-3.74,2.26-5.64,3.37c7.93-3.2,15.89-8.28,22.59-13.95
		c-0.61,0.14-1.21,0.27-1.82,0.42C410.32,135.57,405.19,138.92,400.08,142.07z"/>
	<path class="st1" d="M405.96,134.29c-4.24,1.2-8.44,2.53-12.58,4.02c-0.43,1.48-0.84,2.97-1.18,4.47c1.64-0.95,3.27-1.91,4.88-2.89
		C400.03,138.11,403.01,136.25,405.96,134.29z"/>
	<path class="st1" d="M410.89,307.32c-0.36-1.56-1.15-2.91-2.52-3.91C409.56,304.51,410.37,305.84,410.89,307.32z"/>
	<polygon class="st1" points="378.99,200.39 378.71,200.35 378.82,200.6 	"/>
	<path class="st2" d="M443.12,278.14c-1.24-0.46-2.6-0.7-3.92-0.85c-1.8-0.19-3.64-0.04-5.42-0.33c-1.46-0.24-2.93-0.42-4.39-0.54
		c-5.98,1.16-11.97,2.31-17.98,3.27c-9.6,1.54-19.06,4.38-28.86,4.13c-0.1,0-0.19-0.02-0.27-0.03c-0.37,0.04-0.74,0.08-1.12,0.1
		c-2.71,0.19-5.41,0.52-8.12,0.82c-2.25,0.25-4.5,0.56-6.76,0.79c-0.72,0.07-1.53,0.23-2.08-0.93c0.37-0.76,0.84-1.68,1.29-2.61
		c1.32-2.72,2.73-5.41,3.92-8.19c0.68-1.58,0.13-2.56-1.38-3.35c-3.33-1.74-5.95-0.89-8.03,2.54c-3.05,5.04-6.28,9.96-10.04,14.51
		c-0.82,0.99-1.71,1.57-2.98,1.85c-3.54,0.8-7.04,1.83-10.59,2.58c-2.18,0.46-3.91,1.6-5.59,2.91c-1.38,1.08-1.13,2.41,0.62,3.03
		c1.26,0.45,2.62,0.66,3.94,0.91c0.73,0.14,1.51,0.07,2.23,0.24c0.89,0.21,1.45,1.22,1.31,2.11c-0.17,1.08-0.56,2.02-1.57,2.64
		c-0.77,0.47-1.77,0.88-2.18,1.59c-2.14,3.76-5.74,6.23-8.29,9.61c-0.73,0.97-1.51,1.91-2.15,2.93c-2.98,4.82-6.46,8.88-11.11,12.89
		c-0.57,0.49-1.06,1.08-1.55,1.66c-3.22,3.81-6.25,7.81-9.7,11.41c-3.45,3.59-6.61,7.46-10.56,10.6c-3.06,2.43-5.86,5.29-8.31,8.34
		c-1.34,1.67-2.66,2.3-4.58,2.2c-2.51-0.13-3.6-1.51-2.8-3.96c1.08-3.31,2.35-6.56,3.69-9.77c0.28-0.68,0.63-1.39,1.05-2.03
		c0.99-3.47,3.24-6.35,4.78-9.64c1.44-3.08,2.96-6.03,4.7-8.89c3.15-6.97,5.28-13.84,1.85-18.56c-3.28-1.61-6.84-2.23-10.47-0.99
		c-2.79,0.95-6.07,1.05-8.08,3.76c-3.59,1.38-6.42,3.74-9.25,6.34c-2.11,1.95-4.22,3.82-5.93,6.14c-3.13,4.26-7.13,7.85-9.73,12.53
		c-0.22,0.39-0.51,0.78-0.86,1.05c-1.87,1.43-2.87,3.5-4,5.47c-0.45,0.79-0.74,1.73-1.35,2.36c-3.2,3.26-4.44,7.51-6.09,11.57
		c-1.71,4.22-0.79,8.02,1.74,11.57c2.51,3.52,6.32,4.31,10.37,2.49c3.23-1.45,5.91-3.65,8.71-5.71c2.8-2.06,5.65-4.06,8.52-6.03
		c0.56-0.38,1.29-0.51,1.92-0.74c0.26,0.55,0.5,0.83,0.49,1.09c-0.09,2.67,0.57,5.08,2.41,7.09c1.93,2.12,4.55,2.93,7.16,3.72
		c0.66,0.2,5.25-0.59,8.44-1.33c7.38-3.04,12.46-10.18,18.12-15.53c4.31-4.07,8.82-7.83,12.48-12.35c1.53-2.44,3.19-4.81,4.61-7.25
		c1.13-1.93,3.87-0.24,2.95,1.72c-1.27,2.73-2.88,5.15-4.69,7.39c-1.64,2.67-3.08,5.42-3.77,8.45c-0.8,3.47-1.08,6.99-2.25,10.27
		c-0.06,1.7,0.68,3.16,1.57,4.56c0.92,1.44,2.78,1.41,3.82-0.03c0.71-0.97,1.54-2.03,1.75-3.15c0.36-1.9,1.48-3.31,2.5-4.78
		c1.5-2.15,2.58-4.42,3.18-6.98c0.31-1.31,0.94-2.55,1.51-3.79c0.9-1.95,1.84-3.88,2.78-5.81c0-0.19,0.02-0.4,0.1-0.62
		c3.27-8.52,5.8-17.28,9.63-25.59c1.93-4.2,4.7-10.34,8.81-13.88c5.37-11.62,21.42-11.84,32.38-12.97
		c10.68-1.1,21.14-3.6,31.83-4.79c6.11-0.68,12.1-1.55,18.11-2.87c2.78-0.61,5.92-0.91,8.89-1.55c0.41-0.27,0.83-0.54,1.23-0.83
		c0.61-0.44,1.27-0.82,1.81-1.33C444.38,280.02,444.21,278.54,443.12,278.14z M255.69,359.3c-0.72,0.54-1.55,0.99-2.33,1.39
		c-1.8,0.93-3.12,0.09-2.99-1.83c0.09-1.34,0.34-2.72,0.79-3.98c2.13-6.07,5.33-11.54,9.56-16.35c2.69-4.74,6.95-9.28,11.89-11.88
		c0.18-0.53,0.54-1.06,1.17-1.51c0.07-0.17,0.18-0.34,0.35-0.47c1.69-1.35,5.13-3.75,7.34-1.94c0.32,0.26,0.55,0.56,0.7,0.87
		c0.05,0.01,0.08,0.02,0.13,0.03c-0.02,0.04-0.03,0.07-0.05,0.11c0.66,1.57-0.49,3.57-1.68,4.9c-0.54,3.47-3.18,6.91-5,9.39
		C270.53,344.87,264.27,355.87,255.69,359.3z"/>
	<path class="st3" d="M727.97,318.96c-1.88,0.51-3.86,0.98-5.52,1.94c-2.02,1.16-4,2.03-6.34,2.26c-1.64,0.16-3.24,0.73-4.86,1.15
		c-1.15,0.3-2.28,0.65-3.64,1.04c-0.32-0.92-0.53-1.61-0.78-2.28c-1.19-3.21-2.67-4.15-5.92-3.1c-5.25,1.69-10.66,2.46-16.08,3.27
		c-0.42,0.41-0.99,0.68-1.74,0.69c-2.58,0.02-5.13,0.14-7.68,0.05c-1.33,0.62-2.69,0.85-4.22,0.56c-0.55-0.1-1.18,0.24-1.78,0.32
		c-2.25,0.29-4.49,0.62-6.75,0.8c-2.42,0.19-4.89-0.01-7.27,0.38c-11.54,1.9-22.6-0.89-33.7-3.29c-0.29-0.06-0.57-0.21-0.85-0.33
		c-2.04-0.81-2.52-1.77-1.86-3.89c0.22-0.72,0.39-1.58,0.89-2.07c1.64-1.65,1.77-3.8,2.09-5.86c0.3-1.94,0.32-3.93,0.54-5.89
		c0.38-3.43-0.85-6.2-3.26-8.58c-1.28-1.26-2.71-1.84-4.52-1.59c-3.63,0.51-7.06,1.5-10.29,3.34c-4.53,2.57-8.38,5.99-12.26,9.37
		c-1.21,1.06-2.2,2.57-2.81,4.07c-1.23,3.02-1.65,6.05,0.6,9.01c1.62,2.13,2.85,4.56,4.15,6.69c-0.31,0.59-0.41,0.89-0.6,1.11
		c-0.3,0.34-0.64,0.64-0.99,0.94c-4.43,3.76-9.27,6.73-14.76,8.77c-6.05,2.25-12.12,3.81-18.62,3c-4.34-0.54-8.71-0.91-13.04-1.58
		c-2.67-0.41-5.36-1.02-7.38-3.16c-0.82-0.87-1.9-1.5-2.92-2.16c-1.29-0.84-2.42-1.79-3.25-2.92c-0.41-0.27-0.81-0.54-1.2-0.84
		c-7.06-5.3-12.29-14.95-12.32-23.79c0-0.12,0.01-0.24,0.03-0.35c-0.72-0.72-1.76-0.75-2.74,0.23c-2.84,2.83-6.33,4.53-9.68,6.52
		c-0.65,0.38-1.33,0.79-1.82,1.35c-4.22,4.77-9.94,7.4-15.27,10.51c-3.76,2.2-7.9,3.75-11.89,5.54c-3.46,1.55-7.1,1.38-10.7,0.78
		c-2.04-0.34-3.16-1.85-3.16-3.89c0-2.6,0.21-5.15,2.36-7.1c0.51-0.46,1.03-1.28,1-1.91c-0.12-2.67,1.62-4.08,3.38-5.56
		c1.5-1.26,2.92-2.62,4.39-3.92c1.02-0.9,2.03-1.82,3.11-2.65c3.48-2.68,6.96-5.33,9.87-8.69c2.08-2.39,4.41-4.56,6.61-6.85
		c1.67-1.74,3.45-3.41,4.94-5.3c2.9-3.66,5.7-7.41,8.44-11.2c2.84-3.92,3.52-8.31,2.33-12.98c-0.18-0.69-0.58-1.45-1.11-1.91
		c-1.56-1.35-4.71-1.67-6.37-0.39c-1.39,1.08-2.94,1.46-4.52,1.96c-0.99,0.32-2.01,0.67-2.89,1.22c-2.05,1.27-4.02,2.68-6.04,4
		c-2.55,1.66-4.93,3.49-6.8,5.96c-2.65,3.5-5.35,6.97-8.18,10.32c-2.17,2.58-4.1,5.25-5.26,8.44c-0.26,0.71-0.58,1.41-0.98,2.04
		c-2.86,4.46-5.79,8.87-8.62,13.35c-1.48,2.34-3.38,4.25-5.48,6.01c-0.03,0.03-0.06,0.06-0.1,0.08c-2.56,4.32-7.34,7.94-10.85,10.93
		c-3.23,2.75-6.91,4.83-10.66,6.77c-0.98,0.5-2.07,0.97-3.19,1.44c-4.5,2.95-8.88,6.15-13.98,7.99c-3.09,1.12-6.24,2.41-9.71,1.99
		c-2.32-0.28-4.01-2.27-3.24-4.41c0.48-1.32,0.52-2.64,0.85-3.93c0.31-1.2,0.73-2.36,1.17-3.52c0.01-0.07,0.01-0.13,0.02-0.21
		c0.42-2.01,0.97-4.16,1.45-6.35c0.49-3.56,0.88-7.16,0.4-10.62c-1.06-7.74-9.23-6.71-15.13-5.61c-0.05,0.01-0.09,0.01-0.14,0.01
		c-3.54,2.04-7.52,3.23-10.64,5.98c-0.26,0.23-0.54,0.36-0.83,0.41c-1.28,1.1-2.61,2.07-4.05,2.89
		c-7.47,4.26-12.12,10.94-15.43,18.55c-2.53,5.82-4.45,11.91-5.45,18.22c-0.28,1.79-0.48,3.74,0.66,5.3c3.07,4.23,5.08,6,10.11,5.32
		c1.04-0.14,2.07-0.41,3.07-0.74c4.25-1.38,7.98-3.71,11.19-6.76c4.17-3.95,8.77-7.45,12.44-11.93c0.36-0.43,0.93-0.69,1.59-1.16
		c0.62,0.57,1.24,1,1.66,1.56c0.72,0.96,1.35,1.99,1.95,3.03c1.24,2.18,3.2,3,5.58,3.39c3.33,0.54,6.63,0.36,9.93-0.07
		c5.12-0.67,10.04-1.93,14.77-4.22c2.23-1.08,4.42-2.3,6.7-3.32c3-2.36,6.17-4.59,9.36-6.56c3.76-2.32,6.45-4.27,10.56-2.05
		c0.72,0.39,1.1,0.94,1.24,1.54c1.69,0.6,3.35,1.16,4.97,1.94c1.48,0.71,3.07,1.38,4.68,1.59c6.05,0.78,12.02,0.53,17.61-2.36
		c0.46-0.24,0.91-0.38,1.36-0.4c1.58-0.8,3.23-1.42,4.93-1.92c0.19-0.25,0.43-0.48,0.78-0.64c2.31-1.11,4.39-2.7,6.71-3.79
		c4.01-1.9,8.36-3.06,12.09-5.6c0.07-1.43,2.28-2.34,3.27-0.79c6.01,9.43,16.81,18.21,27.16,22.39c3.58,1.45,7.3,2.37,11.07,3.02
		c1.28,0.07,2.55,0.14,3.83,0.17c1.05,0.03,2.11-0.09,3.16-0.09c5.57,0,11.21,0.93,16.62-1.23c0.27-0.11,0.6-0.12,0.9-0.13
		c5.86-0.15,11.28-2.01,16.67-4.11c6.55-2.56,12.78-5.55,17.5-11.4c3.53,0.65,7.07,1.34,10.63,1.94c2.68,0.45,5.45,1.35,8.05,1.01
		c6.08-0.8,12.1-0.27,18.15-0.21c1.2,0.01,2.45,0.04,3.6-0.23c3.53-0.84,7.26-0.21,10.72-1.58c0.79-0.31,1.8-0.12,2.71-0.1
		c2.43,0.06,4.86,0.32,7.27,0.17c2.7-0.17,5.43-0.48,8.04-1.14c1.65-0.42,3.2-0.69,4.9-0.58c1.8,0.11,3.62,0.01,5.43-0.06
		c1.82-0.08,3.63-0.34,5.45-0.34c3.34-0.01,6.67,0.22,9.8-1.37c0.77-0.39,1.78-0.27,2.68-0.44c1.78-0.34,3.55-0.69,5.32-1.07
		c1.48-0.32,2.93-0.81,4.43-0.99c5.5-0.66,9.93-3.47,14.15-6.77c0.19-0.15,0.19-0.55,0.28-0.84
		C729.81,318.85,728.82,318.73,727.97,318.96z M484.52,283.78c0.01-0.17,0.07-0.35,0.22-0.51c0.14-0.32,0.28-0.65,0.43-0.97
		c0.87-4.57,4.42-10.58,9.06-11.39c0.71-0.12,1.19,0.28,1.28,0.97c0.31,2.37-1.68,4.74-3.06,6.44c-1.83,2.27-3.92,4.38-6.16,6.25
		c-0.22,0.18-0.46,0.25-0.69,0.24c-0.86,0.96-1.75,1.9-2.62,2.84C483.49,286.37,483.98,285.06,484.52,283.78z M393.75,321.65
		c-0.43,1.92-0.94,3.83-1.48,5.72c-0.21,0.72-0.45,1.53-0.93,2.06c-2.44,2.66-4.18,5.98-7.31,8.02c-0.63,0.41-1.47,0.73-1.81,1.33
		c-2.25,3.93-6.24,6.06-9.28,9.17c-1.37,1.4-2.82,2.77-5.58,2.81c0.54-3.09,0.79-5.7,2.54-8.03c1.35-1.8,2.11-4.02,3.31-5.95
		c4.05-6.49,9.45-11.79,15.11-16.85c0.97-0.87,1.96-1.35,3.28-1.12C393.24,319.1,394.09,320.11,393.75,321.65z M502.5,326.03
		c-0.03-0.1-0.06-0.21-0.1-0.31c0.14,0.06,0.28,0.12,0.41,0.19C502.71,325.94,502.6,325.98,502.5,326.03z M606.6,317.8
		c-0.13,0.16-0.27,0.26-0.42,0.32c-0.14,0.4-0.23,0.8-0.25,1.19c-0.05,1.06-1.66,1.07-1.66,0v-3.69c0-0.19,0.06-0.34,0.14-0.46
		c0-3.86,0.41-11.4,5.41-9.19C614.46,308.02,608.33,315.62,606.6,317.8z"/>
	<path class="st2" d="M292.16,215.58c-0.68-0.52-0.97-1.53-1.57-2.2c-0.99-1.11-1.96-2.33-3.17-3.16
		c-3.16-2.15-6.59-3.73-10.51-3.85c-2.11-0.06-4.23-0.12-6.34-0.04c-5.67,0.21-11.11,1.28-15.95,4.5c-0.73,0.49-1.66,0.69-2.51,0.98
		c-3.74,1.24-7.5,2.4-11.21,3.73c-1.1,0.4-2.21,1.08-3.02,1.92c-1.21,1.26-2.71,1.81-4.22,2.54c-4.08,1.97-8.09,4.09-12.05,6.31
		c-2.36,1.33-4.52,2.99-6.83,4.41c-0.42,0.26-1.07,0.16-1.63,0.18c0.35-0.96,0.65-1.94,1.1-2.83c1.5-2.94,3.2-5.79,4.6-8.77
		c0.01-0.03,0.01-0.05,0.01-0.07c1.87-6.62,5.22-12.85,7.24-19.34c-0.82-1.4-0.81-2.99-0.39-4.73c0.24-0.99,0.2-2.1,0.06-3.13
		c-0.13-0.94-0.74-1.65-1.8-1.77c-0.99-0.11-1.85,0.18-2.32,1.07c-1.47,2.81-3.05,5.58-4.27,8.49c-1.23,2.93-1.98,6.05-4.33,8.4
		c-0.39,0.39-0.57,1.08-0.66,1.67c-0.24,1.59-1.16,2.76-2.12,3.95c-0.85,1.06-1.67,2.16-2.36,3.33c-2.72,4.55-5.35,9.15-8.08,13.69
		c-1.17,1.94-2.38,3.87-3.79,5.64c-3.49,4.39-6.92,8.77-9.47,13.83c-1.9,3.77-4.43,7.22-6.67,10.82c-2.63,4.24-5.77,8.18-7.56,12.91
		c-0.31,0.83-0.76,1.69-1.37,2.32c-3.61,3.7-6.52,7.92-9.18,12.32c-1.41,2.33-2.78,4.69-4.26,6.98c-2.64,4.05-5.34,8.05-8.03,12.06
		c-1.88,2.8-3.89,5.52-5.72,8.35c0.02,0.45-0.08,0.93-0.36,1.42c-8.28,14.09-15.23,29.01-24.41,42.52
		c-0.71,1.27-1.41,2.53-2.11,3.76c-1,1.78-0.35,3.18,0.95,4.47c1.33,1.32,2.85,1.4,3.89-0.06c2.99-4.19,6.26-8.25,8.68-12.75
		c2.11-3.94,4.94-7.36,7.32-10.99c2.91-7.06,7.53-13.36,11.43-19.89c4.26-7.13,9.71-13.34,14.53-20.08
		c4.41-6.16,7.32-14.91,12.9-20.46c3.39-7.28,7.75-14.18,13.74-19.41c3.62-5.87,7.89-11.32,12.59-15.82
		c4.91-4.7,10.58-8.59,16.59-11.74c3.33-1.74,6.67-3.6,10.16-4.99c1.65-1.09,3.32-2.14,5.04-3.14c8.91-5.19,17.85-10.21,27.8-13.32
		c4.55-1.42,9.12-2.12,13.78-2.7c2.06-0.26,3.97,0.36,5.69,1.28c3.87,2.06,6.34,5.1,6.11,9.79c-0.12,2.46-0.71,4.78-1.68,7.03
		c-3.04,7.12-6.76,13.87-11.16,20.23c-2.23,3.23-4.95,6.15-6.94,9.51c-1.65,2.77-3.74,5.14-5.66,7.66
		c-1.18,1.56-2.86,2.73-4.06,4.28c-2.68,3.46-5.26,6.98-8.15,10.3c-4.17,4.79-7.91,9.94-11.88,14.91c-1.13,1.42-2.53,2.64-3.56,4.12
		c-2.09,2.99-4.44,5.72-7.15,8.15c-0.9,0.8-1.75,1.7-2.44,2.69c-4.26,6.1-8.97,11.81-14.57,16.76c-0.45,0.4-0.87,0.85-1.25,1.32
		c-2.46,3.07-4.91,6.16-7.37,9.23c-0.57,0.71-1.13,1.44-1.82,2.02c-3.5,2.89-6.98,5.83-10.6,8.57c-2.09,1.58-3.97,3.33-5.36,5.49
		c-2.08,3.22-4.63,5.97-7.6,8.35c-1.7,1.35-2.91,3.02-3.91,4.94c-0.76,1.46-1.68,2.94-2.86,4.05c-2.44,2.28-5.01,4.38-6.53,7.47
		c-0.38,0.76-1.3,1.24-1.94,1.88c-1.59,1.61-3.55,3.01-4.67,4.9c-4.07,6.88-9.38,13.01-12.44,20.5c-0.28,0.68-0.88,1.23-1.35,1.82
		c-0.56,0.71-1.32,1.33-1.67,2.14c-1.65,3.73-3.19,7.52-4.79,11.28c-1.06,2.5-1.92,5.13-3.31,7.44c-2.42,4.02-4.89,7.95-6.63,12.37
		c-1.17,2.96-2.16,5.79-2.62,8.98c-0.84,5.74-0.93,11.38-0.15,17.11c0.84,6.21,3.96,10.63,9.5,13.44c2.19,1.12,4.44,1.74,6.96,1.77
		c2.4,0.02,4.75,0.73,7.21,0.07c5.43-1.45,10.11-4.13,13.66-8.49c2.56-3.16,4.81-6.58,7.17-9.9c0.14-0.19,0.02-0.57,0.02-1.13
		c-0.7,0-1.47-0.21-2.03,0.05c-0.79,0.36-1.39,1.14-2.16,1.6c-0.29,0.17-0.84,0.15-1.16-0.02c-0.18,0.1-0.35,0.2-0.53,0.3
		c-4.19,3.21-9.93,5.25-14.31,4.37c-0.65,0-1.26-0.08-1.82-0.23c-0.31-0.05-0.61-0.17-0.89-0.34c-0.46-0.24-0.87-0.56-1.21-0.96
		c-0.14-0.1-0.28-0.19-0.42-0.3c-3.21-2.53-4.44-7.41-3.99-11.91c-0.01-0.23-0.02-0.45-0.03-0.68c-0.02-2.43,0.12-4.86,0.04-7.28
		c-0.08-2.64,0.65-5.06,1.49-7.51c1.49-4.31,3.8-8.23,5.51-12.43c1.26-3.09,2.38-6.26,3.99-9.16c3.81-6.87,7.3-13.91,11.39-20.64
		c2.75-4.54,5.83-8.8,9.09-12.95c2.52-3.2,5.28-6.22,7.83-9.4c1.6-2,2.88-4.27,4.53-6.22c4.02-4.73,8.08-9.43,12.3-13.99
		c7.09-7.68,14.32-15.24,21.48-22.86c3.73-3.97,7.48-7.91,11.11-11.97c1.71-1.91,3.11-4.1,4.76-6.07c4.17-4.98,8.55-9.79,12.55-14.9
		c2.34-2.98,4.29-6.24,7.58-8.34c0.25-0.16,0.46-0.4,0.65-0.64c2.35-2.96,4.66-5.94,7.04-8.88c3.23-3.99,6.45-8,9.71-11.98
		c5.28-6.43,10.17-13.19,15.08-19.91c5.66-7.75,9.41-16.2,8.86-26.09c-0.02-0.44,0.22-0.89,0.23-1.33
		C295.21,221.26,295.24,217.94,292.16,215.58z M213.04,231.69c-0.05,0.16-0.3,0.26-0.46,0.38c0.04-0.12,0.07-0.25,0.13-0.37
		c0.11-0.19,0.23-0.38,0.34-0.57C213.07,231.33,213.09,231.52,213.04,231.69z M148.11,477.86c0.97,0.1,1.94,0.26,2.9,0.43
		c0.08,0.01,0.11,0.24,0.17,0.36c-0.11,0.26-0.16,0.63-0.36,0.75c-1.02,0.58-2.41,0.18-2.99-0.86
		C147.76,478.39,148.04,477.85,148.11,477.86z M140.22,472.87c-2.41,1.74-4.07,1.46-4.73-0.65c-0.44-1.43-0.78-2.9,0.38-4.87
		C137.95,469.11,139.2,470.91,140.22,472.87z"/>
	<path d="M528.9,294.72c-0.58-3.86-4.01-5.3-6.92-2.71c-0.89,0.79-1.74,1.47-2.67,1.87c-1.39,1.76-2.28,3.68-2.76,5.88
		c0.2,0.89,0.38,1.67,0.87,2.11c1.87,1.69,4.36,1.87,6.81,1.75c0.41-0.02,0.85-0.32,1.19-0.59
		C528.13,300.92,529.43,298.2,528.9,294.72z"/>
	<path d="M703.89-109.48c-0.73,0.68-1.08,1.28-1.49,1.32c-0.41,0.03-0.87-0.5-1.31-0.78c0.32-0.42,0.58-1.05,1-1.19
		C702.45-110.26,703-109.84,703.89-109.48z"/>
	<path d="M388.32,762.83c0.64-0.38,1.06-0.63,1.47-0.88c0.19,0.33,0.57,0.7,0.51,0.98c-0.06,0.32-0.49,0.74-0.81,0.78
		C389.23,763.76,388.91,763.3,388.32,762.83z"/>
	<path d="M767.62,276.17c-0.43,0.06-0.82,0.18-1.19,0.14c-0.14-0.02-0.23-0.42-0.34-0.65c0.38-0.1,0.75-0.26,1.13-0.26
		C767.33,275.39,767.44,275.81,767.62,276.17z"/>
	<path d="M536.71,698.03c0.25,0.19,0.57,0.42,0.88,0.65c-0.25,0.26-0.5,0.52-0.76,0.79c-0.27-0.27-0.55-0.54-0.82-0.8
		C536.22,698.48,536.41,698.3,536.71,698.03z"/>
	<path d="M773.28,332.36c-0.23,0.02-0.46,0.06-0.68,0.04c-0.04,0-0.07-0.23-0.1-0.36c0.23-0.02,0.46-0.06,0.69-0.04
		C773.23,332,773.25,332.23,773.28,332.36z"/>
	<polygon points="379.16,278.72 378.82,278.74 378.96,278.44 	"/>
	<polygon points="392.52,694.85 392.5,694.52 392.79,694.66 	"/>
	<path d="M334.47,749.56c-0.11-0.05-0.29-0.08-0.33-0.17c-0.03-0.08,0.06-0.29,0.15-0.32c0.08-0.03,0.22,0.09,0.34,0.14
		C334.57,749.33,334.52,749.44,334.47,749.56z"/>
	<polygon points="378.99,200.39 378.82,200.6 378.71,200.35 	"/>
	<path class="st1" d="M252.96,360.1c-1.78,0.34-2.53-2.38-0.75-2.72c7.09-1.36,11.92-8.95,16-14.32c2.16-2.85,4.44-5.62,6.44-8.59
		c0.31-0.46,1.15-2.08,1.87-3.77c-1.24,0-2.35-0.52-3.1-1.27c-5.02,2.82-9.16,7.82-11.41,12.74c-0.76,1.65-3.19,0.22-2.44-1.43
		c0.34-0.74,0.73-1.49,1.15-2.23c-4.23,4.8-7.43,10.27-9.56,16.35c-0.45,1.27-0.7,2.64-0.79,3.98c-0.13,1.92,1.19,2.76,2.99,1.83
		c0.78-0.4,1.61-0.85,2.33-1.39C254.81,359.65,253.9,359.92,252.96,360.1z"/>
	<path class="st1" d="M367.36,350.75c0.54-3.09,0.79-5.7,2.54-8.03c1.35-1.8,2.11-4.02,3.31-5.95c4.05-6.49,9.45-11.79,15.11-16.85
		c0.97-0.87,1.96-1.35,3.28-1.12c1.64,0.29,2.49,1.3,2.14,2.84c-0.43,1.92-0.94,3.83-1.48,5.72c-0.21,0.72-0.45,1.53-0.93,2.06
		c-2.44,2.66-4.18,5.98-7.31,8.02c-0.63,0.41-1.47,0.73-1.81,1.33c-2.25,3.93-6.24,6.06-9.28,9.17
		C371.57,349.34,370.12,350.71,367.36,350.75z"/>
	<path class="st1" d="M484.52,283.78c-0.53,1.28-1.02,2.6-1.55,3.89c0.87-0.94,1.76-1.88,2.62-2.84
		C485.01,284.8,484.49,284.3,484.52,283.78z"/>
	<path class="st1" d="M502.5,326.03c-0.03-0.1-0.06-0.21-0.1-0.31c0.14,0.06,0.27,0.12,0.41,0.19
		C502.71,325.94,502.6,325.98,502.5,326.03z"/>
	<path class="st2" d="M135.88,467.34c2.08,1.77,3.32,3.56,4.35,5.52c-2.41,1.74-4.07,1.46-4.73-0.65
		C135.06,470.79,134.72,469.32,135.88,467.34z"/>
	<path class="st2" d="M151.18,478.65c-0.12,0.26-0.16,0.63-0.36,0.75c-1.02,0.58-2.41,0.18-2.99-0.86c-0.08-0.14,0.2-0.68,0.28-0.67
		c0.97,0.1,1.94,0.26,2.9,0.43C151.09,478.3,151.13,478.53,151.18,478.65z"/>
	<path class="st1" d="M213.03,230.91c0.01,0.26,0.09,0.54,0.01,0.78c-0.05,0.16-0.3,0.26-0.46,0.38c0.04-0.12,0.07-0.25,0.13-0.37
		c0.13-0.23,0.28-0.45,0.41-0.69C213.11,231.01,213.03,230.91,213.03,230.91z"/>
</g>
<g class="st0">
	<g>
		<path d="M138.6,474.27c3.22,0,3.22-5,0-5C135.38,469.27,135.37,474.27,138.6,474.27L138.6,474.27z"/>
	</g>
</g>
<g class="st0">
	<path class="st4" d="M134.23,467.1c1.65,3.51,5.03,6.15,8.83,6.91"/>
</g>
<g class="st0">
	<path class="st4" d="M143.82,474.61c1.86,1.76,4.32,2.88,6.87,3.13"/>
</g>
</svg>
